# MagicaVoxel @ Ephtracy

# material
mtllib Closet.mtl
usemtl palette

# normals
vn -1 0 0
vn 1 0 0
vn 0 0 1
vn 0 0 -1
vn 0 -1 0
vn 0 1 0

# texcoords
vt 0.318359 0.5
vt 0.353516 0.5
vt 0.361328 0.5
vt 0.365234 0.5

# verts
v -16 0 10
v -16 0 -10
v -16 43 10
v -16 43 -10
v -3 8 -9
v -3 8 -10
v -3 9 -9
v -3 9 -10
v -3 23 -9
v -3 23 -10
v -3 30 -9
v -3 30 -10
v -1 13 -9
v -1 13 -10
v -1 42 -9
v -1 42 -10
v 2 23 -9
v 2 23 -10
v 2 30 -9
v 2 30 -10
v 15 1 -9
v 15 1 -10
v 15 10 -9
v 15 10 -10
v 15 13 -9
v 15 13 -10
v 15 42 -9
v 15 42 -10
v -15 1 -9
v -15 1 -10
v -15 10 -9
v -15 10 -10
v -15 13 -9
v -15 13 -10
v -15 42 -9
v -15 42 -10
v -2 23 -9
v -2 23 -10
v -2 30 -9
v -2 30 -10
v 1 13 -9
v 1 13 -10
v 1 42 -9
v 1 42 -10
v 3 8 -9
v 3 8 -10
v 3 9 -9
v 3 9 -10
v 3 23 -9
v 3 23 -10
v 3 30 -9
v 3 30 -10
v 16 0 10
v 16 0 -10
v 16 43 10
v 16 43 -10
v -16 0 10
v -16 43 10
v 16 0 10
v 16 43 10
v -15 1 -9
v -15 10 -9
v -15 13 -9
v -15 42 -9
v -3 8 -9
v -3 9 -9
v -3 23 -9
v -3 30 -9
v -2 23 -9
v -2 30 -9
v -1 13 -9
v -1 42 -9
v 1 13 -9
v 1 42 -9
v 2 23 -9
v 2 30 -9
v 3 8 -9
v 3 9 -9
v 3 23 -9
v 3 30 -9
v 15 1 -9
v 15 10 -9
v 15 13 -9
v 15 42 -9
v -16 0 -10
v -16 43 -10
v -15 1 -10
v -15 10 -10
v -15 13 -10
v -15 42 -10
v -3 8 -10
v -3 9 -10
v -3 23 -10
v -3 30 -10
v -2 23 -10
v -2 30 -10
v -1 13 -10
v -1 42 -10
v 1 13 -10
v 1 42 -10
v 2 23 -10
v 2 30 -10
v 3 8 -10
v 3 9 -10
v 3 23 -10
v 3 30 -10
v 15 1 -10
v 15 10 -10
v 15 13 -10
v 15 42 -10
v 16 0 -10
v 16 43 -10
v -16 0 10
v 16 0 10
v -16 0 -10
v 16 0 -10
v -3 8 -9
v 3 8 -9
v -3 8 -10
v 3 8 -10
v -15 10 -9
v 15 10 -9
v -15 10 -10
v 15 10 -10
v -3 23 -9
v -2 23 -9
v 2 23 -9
v 3 23 -9
v -3 23 -10
v -2 23 -10
v 2 23 -10
v 3 23 -10
v -15 42 -9
v -1 42 -9
v 1 42 -9
v 15 42 -9
v -15 42 -10
v -1 42 -10
v 1 42 -10
v 15 42 -10
v -15 1 -9
v 15 1 -9
v -15 1 -10
v 15 1 -10
v -3 9 -9
v 3 9 -9
v -3 9 -10
v 3 9 -10
v -15 13 -9
v -1 13 -9
v 1 13 -9
v 15 13 -9
v -15 13 -10
v -1 13 -10
v 1 13 -10
v 15 13 -10
v -3 30 -9
v -2 30 -9
v 2 30 -9
v 3 30 -9
v -3 30 -10
v -2 30 -10
v 2 30 -10
v 3 30 -10
v -16 43 10
v 16 43 10
v -16 43 -10
v 16 43 -10

# faces
f 3/1/1 2/1/1 1/1/1
f 4/1/1 2/1/1 3/1/1
f 7/4/1 6/4/1 5/4/1
f 8/4/1 6/4/1 7/4/1
f 11/4/1 10/4/1 9/4/1
f 12/4/1 10/4/1 11/4/1
f 15/1/1 14/1/1 13/1/1
f 16/1/1 14/1/1 15/1/1
f 19/4/1 18/4/1 17/4/1
f 20/4/1 18/4/1 19/4/1
f 23/1/1 22/1/1 21/1/1
f 24/1/1 22/1/1 23/1/1
f 27/1/1 26/1/1 25/1/1
f 28/1/1 26/1/1 27/1/1
f 29/1/2 30/1/2 31/1/2
f 31/1/2 30/1/2 32/1/2
f 33/1/2 34/1/2 35/1/2
f 35/1/2 34/1/2 36/1/2
f 37/4/2 38/4/2 39/4/2
f 39/4/2 38/4/2 40/4/2
f 41/1/2 42/1/2 43/1/2
f 43/1/2 42/1/2 44/1/2
f 45/4/2 46/4/2 47/4/2
f 47/4/2 46/4/2 48/4/2
f 49/4/2 50/4/2 51/4/2
f 51/4/2 50/4/2 52/4/2
f 53/1/2 54/1/2 55/1/2
f 55/1/2 54/1/2 56/1/2
f 59/1/3 58/1/3 57/1/3
f 60/1/3 58/1/3 59/1/3
f 61/3/4 62/3/4 65/3/4
f 65/3/4 62/3/4 66/3/4
f 63/3/4 64/3/4 67/3/4
f 67/3/4 64/3/4 68/3/4
f 63/3/4 67/3/4 69/3/4
f 68/3/4 64/3/4 70/3/4
f 63/3/4 69/3/4 71/3/4
f 69/3/4 70/3/4 71/3/4
f 70/3/4 64/3/4 72/3/4
f 71/3/4 70/3/4 72/3/4
f 73/3/4 74/3/4 75/3/4
f 75/3/4 74/3/4 76/3/4
f 61/3/4 65/3/4 77/3/4
f 66/3/4 62/3/4 78/3/4
f 73/3/4 75/3/4 79/3/4
f 76/3/4 74/3/4 80/3/4
f 61/3/4 77/3/4 81/3/4
f 77/3/4 78/3/4 81/3/4
f 78/3/4 62/3/4 82/3/4
f 81/3/4 78/3/4 82/3/4
f 79/3/4 80/3/4 83/3/4
f 73/3/4 79/3/4 83/3/4
f 80/3/4 74/3/4 84/3/4
f 83/3/4 80/3/4 84/3/4
f 85/1/4 86/1/4 87/1/4
f 87/1/4 86/1/4 88/1/4
f 88/1/4 86/1/4 89/1/4
f 89/1/4 86/1/4 90/1/4
f 93/4/4 94/4/4 95/4/4
f 95/4/4 94/4/4 96/4/4
f 88/1/4 89/1/4 97/1/4
f 90/1/4 86/1/4 98/1/4
f 88/1/4 97/1/4 99/1/4
f 97/1/4 98/1/4 99/1/4
f 98/1/4 86/1/4 100/1/4
f 99/1/4 98/1/4 100/1/4
f 91/4/4 92/4/4 103/4/4
f 103/4/4 92/4/4 104/4/4
f 101/4/4 102/4/4 105/4/4
f 105/4/4 102/4/4 106/4/4
f 85/1/4 87/1/4 107/1/4
f 88/1/4 99/1/4 108/1/4
f 108/1/4 99/1/4 109/1/4
f 100/1/4 86/1/4 110/1/4
f 108/1/4 109/1/4 111/1/4
f 109/1/4 110/1/4 111/1/4
f 85/1/4 107/1/4 111/1/4
f 107/1/4 108/1/4 111/1/4
f 110/1/4 86/1/4 112/1/4
f 111/1/4 110/1/4 112/1/4
f 115/1/5 114/1/5 113/1/5
f 116/1/5 114/1/5 115/1/5
f 119/4/5 118/4/5 117/4/5
f 120/4/5 118/4/5 119/4/5
f 123/1/5 122/1/5 121/1/5
f 124/1/5 122/1/5 123/1/5
f 129/4/5 126/4/5 125/4/5
f 130/4/5 126/4/5 129/4/5
f 131/4/5 128/4/5 127/4/5
f 132/4/5 128/4/5 131/4/5
f 137/1/5 134/1/5 133/1/5
f 138/1/5 134/1/5 137/1/5
f 139/1/5 136/1/5 135/1/5
f 140/1/5 136/1/5 139/1/5
f 141/1/6 142/1/6 143/1/6
f 143/1/6 142/1/6 144/1/6
f 145/4/6 146/4/6 147/4/6
f 147/4/6 146/4/6 148/4/6
f 149/1/6 150/1/6 153/1/6
f 153/1/6 150/1/6 154/1/6
f 151/1/6 152/1/6 155/1/6
f 155/1/6 152/1/6 156/1/6
f 157/4/6 158/4/6 161/4/6
f 161/4/6 158/4/6 162/4/6
f 159/4/6 160/4/6 163/4/6
f 163/4/6 160/4/6 164/4/6
f 165/1/6 166/1/6 167/1/6
f 167/1/6 166/1/6 168/1/6
