# MagicaVoxel @ Ephtracy

# material
mtllib Shower.mtl
usemtl palette

# normals
vn -1 0 0
vn 1 0 0
vn 0 0 1
vn 0 0 -1
vn 0 -1 0
vn 0 1 0

# texcoords
vt 0.958984 0.5
vt 0.978516 0.5

# verts
v -10 0 10
v -10 0 -10
v -10 1 9
v -10 1 -9
v -10 38 9
v -10 38 -9
v -10 39 10
v -10 39 -10
v -4 18 -7
v -4 18 -8
v -4 19 -7
v -4 19 -8
v -3 17 -7
v -3 17 -8
v -3 18 -7
v -3 18 -8
v -3 18 -9
v -3 19 -7
v -3 19 -8
v -3 19 -9
v -3 20 -7
v -3 20 -8
v -3 30 -4
v -3 30 -6
v -3 31 -4
v -3 31 -6
v -2 31 -4
v -2 31 -6
v -2 32 -4
v -2 32 -6
v -1 30 -2
v -1 30 -4
v -1 30 -6
v -1 30 -8
v -1 31 -2
v -1 31 -3
v -1 31 -7
v -1 31 -8
v -1 32 -3
v -1 32 -4
v -1 32 -6
v -1 32 -7
v -1 34 -6
v -1 34 -9
v -1 35 -4
v -1 35 -5
v -1 36 -5
v -1 36 -9
v 1 18 -7
v 1 18 -8
v 1 19 -7
v 1 19 -8
v 1 30 -4
v 1 30 -6
v 1 31 -4
v 1 31 -6
v 2 17 -7
v 2 17 -8
v 2 18 -7
v 2 18 -8
v 2 18 -9
v 2 19 -7
v 2 19 -8
v 2 19 -9
v 2 20 -7
v 2 20 -8
v 6 16 10
v 6 16 9
v 6 24 10
v 6 24 9
v 9 1 10
v 9 1 9
v 9 38 10
v 9 38 9
v 9 38 -9
v 9 39 9
v 9 39 -9
v -9 1 10
v -9 1 9
v -9 38 10
v -9 38 9
v -9 38 -9
v -9 39 9
v -9 39 -9
v -2 17 -7
v -2 17 -8
v -2 18 -7
v -2 18 -8
v -2 18 -9
v -2 19 -7
v -2 19 -8
v -2 19 -9
v -2 20 -7
v -2 20 -8
v -1 18 -7
v -1 18 -8
v -1 19 -7
v -1 19 -8
v -1 30 -4
v -1 30 -6
v -1 31 -4
v -1 31 -6
v 1 30 -2
v 1 30 -4
v 1 30 -6
v 1 30 -8
v 1 31 -2
v 1 31 -3
v 1 31 -7
v 1 31 -8
v 1 32 -3
v 1 32 -4
v 1 32 -6
v 1 32 -7
v 1 34 -6
v 1 34 -9
v 1 35 -4
v 1 35 -5
v 1 36 -5
v 1 36 -9
v 2 31 -4
v 2 31 -6
v 2 32 -4
v 2 32 -6
v 3 17 -7
v 3 17 -8
v 3 18 -7
v 3 18 -8
v 3 18 -9
v 3 19 -7
v 3 19 -8
v 3 19 -9
v 3 20 -7
v 3 20 -8
v 3 30 -4
v 3 30 -6
v 3 31 -4
v 3 31 -6
v 4 18 -7
v 4 18 -8
v 4 19 -7
v 4 19 -8
v 7 16 10
v 7 16 9
v 7 24 10
v 7 24 9
v 10 0 10
v 10 0 -10
v 10 1 9
v 10 1 -9
v 10 38 9
v 10 38 -9
v 10 39 10
v 10 39 -10
v -10 0 10
v -10 39 10
v -9 1 10
v -9 38 10
v 6 16 10
v 6 24 10
v 7 16 10
v 7 24 10
v 9 1 10
v 9 38 10
v 10 0 10
v 10 39 10
v -1 30 -2
v -1 31 -2
v 1 30 -2
v 1 31 -2
v -1 31 -3
v -1 32 -3
v 1 31 -3
v 1 32 -3
v -3 30 -4
v -3 31 -4
v -2 31 -4
v -2 32 -4
v -1 30 -4
v -1 32 -4
v -1 35 -4
v 1 30 -4
v 1 32 -4
v 1 35 -4
v 2 31 -4
v 2 32 -4
v 3 30 -4
v 3 31 -4
v -1 35 -5
v -1 36 -5
v 1 35 -5
v 1 36 -5
v -1 30 -6
v -1 31 -6
v 1 30 -6
v 1 31 -6
v -4 18 -7
v -4 19 -7
v -3 17 -7
v -3 18 -7
v -3 19 -7
v -3 20 -7
v -2 17 -7
v -2 18 -7
v -2 19 -7
v -2 20 -7
v -1 18 -7
v -1 19 -7
v 1 18 -7
v 1 19 -7
v 2 17 -7
v 2 18 -7
v 2 19 -7
v 2 20 -7
v 3 17 -7
v 3 18 -7
v 3 19 -7
v 3 20 -7
v 4 18 -7
v 4 19 -7
v -10 1 -9
v -10 38 -9
v -9 1 -9
v -9 38 -9
v -9 39 -9
v -3 18 -9
v -3 19 -9
v -2 18 -9
v -2 19 -9
v -1 34 -9
v -1 36 -9
v 1 34 -9
v 1 36 -9
v 2 18 -9
v 2 19 -9
v 3 18 -9
v 3 19 -9
v 9 1 -9
v 9 38 -9
v 9 39 -9
v 10 1 -9
v 10 38 -9
v -10 1 9
v -10 38 9
v -9 1 9
v -9 38 9
v -9 39 9
v 6 16 9
v 6 24 9
v 7 16 9
v 7 24 9
v 9 1 9
v 9 38 9
v 9 39 9
v 10 1 9
v 10 38 9
v -1 30 -4
v -1 31 -4
v 1 30 -4
v 1 31 -4
v -3 30 -6
v -3 31 -6
v -2 31 -6
v -2 32 -6
v -1 30 -6
v -1 32 -6
v -1 34 -6
v 1 30 -6
v 1 32 -6
v 1 34 -6
v 2 31 -6
v 2 32 -6
v 3 30 -6
v 3 31 -6
v -1 31 -7
v -1 32 -7
v 1 31 -7
v 1 32 -7
v -4 18 -8
v -4 19 -8
v -3 17 -8
v -3 18 -8
v -3 19 -8
v -3 20 -8
v -2 17 -8
v -2 18 -8
v -2 19 -8
v -2 20 -8
v -1 18 -8
v -1 19 -8
v -1 30 -8
v -1 31 -8
v 1 18 -8
v 1 19 -8
v 1 30 -8
v 1 31 -8
v 2 17 -8
v 2 18 -8
v 2 19 -8
v 2 20 -8
v 3 17 -8
v 3 18 -8
v 3 19 -8
v 3 20 -8
v 4 18 -8
v 4 19 -8
v -10 0 -10
v -10 39 -10
v -9 1 -10
v -9 38 -10
v 9 1 -10
v 9 38 -10
v 10 0 -10
v 10 39 -10
v -10 0 10
v 10 0 10
v -9 0 9
v 9 0 9
v -1 0 2
v 1 0 2
v -2 0 1
v -1 0 1
v 0 0 1
v 1 0 1
v 2 0 1
v -1 0 -0
v 0 0 -0
v 1 0 -0
v -2 0 -1
v -1 0 -1
v 0 0 -1
v 1 0 -1
v 2 0 -1
v -1 0 -2
v 1 0 -2
v -9 0 -9
v 9 0 -9
v -10 0 -10
v 10 0 -10
v 6 16 10
v 7 16 10
v 6 16 9
v 7 16 9
v -3 17 -7
v -2 17 -7
v 2 17 -7
v 3 17 -7
v -3 17 -8
v -2 17 -8
v 2 17 -8
v 3 17 -8
v -4 18 -7
v -3 18 -7
v -2 18 -7
v -1 18 -7
v 1 18 -7
v 2 18 -7
v 3 18 -7
v 4 18 -7
v -4 18 -8
v -3 18 -8
v -2 18 -8
v -1 18 -8
v 1 18 -8
v 2 18 -8
v 3 18 -8
v 4 18 -8
v -3 18 -9
v -2 18 -9
v 2 18 -9
v 3 18 -9
v -1 30 -2
v 1 30 -2
v -3 30 -4
v -1 30 -4
v 1 30 -4
v 3 30 -4
v -3 30 -6
v -1 30 -6
v 1 30 -6
v 3 30 -6
v -1 30 -8
v 1 30 -8
v -1 31 -4
v 1 31 -4
v -1 31 -6
v 1 31 -6
v -1 34 -6
v 1 34 -6
v -1 34 -9
v 1 34 -9
v -9 38 10
v 9 38 10
v -10 38 9
v -9 38 9
v 9 38 9
v 10 38 9
v -10 38 -9
v -9 38 -9
v 9 38 -9
v 10 38 -9
v -9 1 10
v 9 1 10
v -10 1 9
v -9 1 9
v 9 1 9
v 10 1 9
v -1 1 2
v 1 1 2
v -2 1 1
v -1 1 1
v 0 1 1
v 1 1 1
v 2 1 1
v -1 1 -0
v 0 1 -0
v 1 1 -0
v -2 1 -1
v -1 1 -1
v 0 1 -1
v 1 1 -1
v 2 1 -1
v -1 1 -2
v 1 1 -2
v -10 1 -9
v -9 1 -9
v 9 1 -9
v 10 1 -9
v -4 19 -7
v -3 19 -7
v -2 19 -7
v -1 19 -7
v 1 19 -7
v 2 19 -7
v 3 19 -7
v 4 19 -7
v -4 19 -8
v -3 19 -8
v -2 19 -8
v -1 19 -8
v 1 19 -8
v 2 19 -8
v 3 19 -8
v 4 19 -8
v -3 19 -9
v -2 19 -9
v 2 19 -9
v 3 19 -9
v -3 20 -7
v -2 20 -7
v 2 20 -7
v 3 20 -7
v -3 20 -8
v -2 20 -8
v 2 20 -8
v 3 20 -8
v 6 24 10
v 7 24 10
v 6 24 9
v 7 24 9
v -1 31 -2
v 1 31 -2
v -1 31 -3
v 1 31 -3
v -3 31 -4
v -2 31 -4
v 2 31 -4
v 3 31 -4
v -3 31 -6
v -2 31 -6
v 2 31 -6
v 3 31 -6
v -1 31 -7
v 1 31 -7
v -1 31 -8
v 1 31 -8
v -1 32 -3
v 1 32 -3
v -2 32 -4
v -1 32 -4
v 1 32 -4
v 2 32 -4
v -2 32 -6
v -1 32 -6
v 1 32 -6
v 2 32 -6
v -1 32 -7
v 1 32 -7
v -1 35 -4
v 1 35 -4
v -1 35 -5
v 1 35 -5
v -1 36 -5
v 1 36 -5
v -1 36 -9
v 1 36 -9
v -10 39 10
v 10 39 10
v -9 39 9
v 9 39 9
v -9 39 -9
v 9 39 -9
v -10 39 -10
v 10 39 -10

# faces
f 3/2/1 2/2/1 1/2/1
f 4/2/1 2/2/1 3/2/1
f 5/2/1 3/2/1 1/2/1
f 6/2/1 2/2/1 4/2/1
f 7/2/1 5/2/1 1/2/1
f 7/2/1 6/2/1 5/2/1
f 8/2/1 2/2/1 6/2/1
f 8/2/1 6/2/1 7/2/1
f 11/2/1 10/2/1 9/2/1
f 12/2/1 10/2/1 11/2/1
f 15/2/1 14/2/1 13/2/1
f 16/2/1 14/2/1 15/2/1
f 19/2/1 17/2/1 16/2/1
f 20/2/1 17/2/1 19/2/1
f 21/2/1 19/2/1 18/2/1
f 22/2/1 19/2/1 21/2/1
f 25/2/1 24/2/1 23/2/1
f 26/2/1 24/2/1 25/2/1
f 29/2/1 28/2/1 27/2/1
f 30/2/1 28/2/1 29/2/1
f 35/2/1 32/2/1 31/2/1
f 36/2/1 32/2/1 35/2/1
f 37/2/1 34/2/1 33/2/1
f 38/2/1 34/2/1 37/2/1
f 39/2/1 32/2/1 36/2/1
f 40/2/1 32/2/1 39/2/1
f 41/2/1 37/2/1 33/2/1
f 42/2/1 37/2/1 41/2/1
f 43/2/1 41/2/1 40/2/1
f 45/2/1 43/2/1 40/2/1
f 45/2/1 44/2/1 43/2/1
f 46/2/1 44/2/1 45/2/1
f 47/2/1 44/2/1 46/2/1
f 48/2/1 44/2/1 47/2/1
f 51/2/1 50/2/1 49/2/1
f 52/2/1 50/2/1 51/2/1
f 55/2/1 54/2/1 53/2/1
f 56/2/1 54/2/1 55/2/1
f 59/2/1 58/2/1 57/2/1
f 60/2/1 58/2/1 59/2/1
f 63/2/1 61/2/1 60/2/1
f 64/2/1 61/2/1 63/2/1
f 65/2/1 63/2/1 62/2/1
f 66/2/1 63/2/1 65/2/1
f 69/2/1 68/2/1 67/2/1
f 70/2/1 68/2/1 69/2/1
f 73/2/1 72/2/1 71/2/1
f 74/2/1 72/2/1 73/2/1
f 76/2/1 75/2/1 74/2/1
f 77/2/1 75/2/1 76/2/1
f 78/2/2 79/2/2 80/2/2
f 80/2/2 79/2/2 81/2/2
f 81/2/2 82/2/2 83/2/2
f 83/2/2 82/2/2 84/2/2
f 85/2/2 86/2/2 87/2/2
f 87/2/2 86/2/2 88/2/2
f 88/2/2 89/2/2 91/2/2
f 91/2/2 89/2/2 92/2/2
f 90/2/2 91/2/2 93/2/2
f 93/2/2 91/2/2 94/2/2
f 95/2/2 96/2/2 97/2/2
f 97/2/2 96/2/2 98/2/2
f 99/2/2 100/2/2 101/2/2
f 101/2/2 100/2/2 102/2/2
f 103/2/2 104/2/2 107/2/2
f 107/2/2 104/2/2 108/2/2
f 105/2/2 106/2/2 109/2/2
f 109/2/2 106/2/2 110/2/2
f 108/2/2 104/2/2 111/2/2
f 111/2/2 104/2/2 112/2/2
f 105/2/2 109/2/2 113/2/2
f 113/2/2 109/2/2 114/2/2
f 112/2/2 113/2/2 115/2/2
f 112/2/2 115/2/2 117/2/2
f 115/2/2 116/2/2 117/2/2
f 117/2/2 116/2/2 118/2/2
f 118/2/2 116/2/2 119/2/2
f 119/2/2 116/2/2 120/2/2
f 121/2/2 122/2/2 123/2/2
f 123/2/2 122/2/2 124/2/2
f 125/2/2 126/2/2 127/2/2
f 127/2/2 126/2/2 128/2/2
f 128/2/2 129/2/2 131/2/2
f 131/2/2 129/2/2 132/2/2
f 130/2/2 131/2/2 133/2/2
f 133/2/2 131/2/2 134/2/2
f 135/2/2 136/2/2 137/2/2
f 137/2/2 136/2/2 138/2/2
f 139/2/2 140/2/2 141/2/2
f 141/2/2 140/2/2 142/2/2
f 143/2/2 144/2/2 145/2/2
f 145/2/2 144/2/2 146/2/2
f 147/2/2 148/2/2 149/2/2
f 149/2/2 148/2/2 150/2/2
f 147/2/2 149/2/2 151/2/2
f 150/2/2 148/2/2 152/2/2
f 147/2/2 151/2/2 153/2/2
f 151/2/2 152/2/2 153/2/2
f 152/2/2 148/2/2 154/2/2
f 153/2/2 152/2/2 154/2/2
f 157/2/3 156/2/3 155/2/3
f 158/2/3 156/2/3 157/2/3
f 161/2/3 160/2/3 159/2/3
f 162/2/3 160/2/3 161/2/3
f 163/2/3 157/2/3 155/2/3
f 164/2/3 156/2/3 158/2/3
f 165/2/3 163/2/3 155/2/3
f 165/2/3 164/2/3 163/2/3
f 166/2/3 156/2/3 164/2/3
f 166/2/3 164/2/3 165/2/3
f 169/2/3 168/2/3 167/2/3
f 170/2/3 168/2/3 169/2/3
f 173/2/3 172/2/3 171/2/3
f 174/2/3 172/2/3 173/2/3
f 177/2/3 176/2/3 175/2/3
f 179/2/3 177/2/3 175/2/3
f 179/2/3 178/2/3 177/2/3
f 180/2/3 178/2/3 179/2/3
f 183/2/3 181/2/3 180/2/3
f 184/2/3 181/2/3 183/2/3
f 185/2/3 183/2/3 182/2/3
f 186/2/3 183/2/3 185/2/3
f 187/2/3 185/2/3 182/2/3
f 188/2/3 185/2/3 187/2/3
f 191/2/3 190/2/3 189/2/3
f 192/2/3 190/2/3 191/2/3
f 195/2/3 194/2/3 193/2/3
f 196/2/3 194/2/3 195/2/3
f 200/2/3 198/2/3 197/2/3
f 201/2/3 198/2/3 200/2/3
f 203/2/3 200/2/3 199/2/3
f 203/2/3 202/2/3 201/2/3
f 203/2/3 201/2/3 200/2/3
f 204/2/3 202/2/3 203/2/3
f 205/2/3 202/2/3 204/2/3
f 206/2/3 202/2/3 205/2/3
f 207/2/3 205/2/3 204/2/3
f 208/2/3 205/2/3 207/2/3
f 212/2/3 210/2/3 209/2/3
f 213/2/3 210/2/3 212/2/3
f 215/2/3 213/2/3 212/2/3
f 215/2/3 214/2/3 213/2/3
f 215/2/3 212/2/3 211/2/3
f 216/2/3 214/2/3 215/2/3
f 217/2/3 214/2/3 216/2/3
f 218/2/3 214/2/3 217/2/3
f 219/2/3 217/2/3 216/2/3
f 220/2/3 217/2/3 219/2/3
f 223/2/3 222/2/3 221/2/3
f 224/2/3 222/2/3 223/2/3
f 226/1/3 224/1/3 223/1/3
f 227/1/3 224/1/3 226/1/3
f 228/1/3 226/1/3 223/1/3
f 229/1/3 224/1/3 227/1/3
f 230/1/3 224/1/3 229/1/3
f 230/1/3 229/1/3 228/1/3
f 231/1/3 224/1/3 230/1/3
f 232/1/3 230/1/3 228/1/3
f 233/1/3 224/1/3 231/1/3
f 234/1/3 228/1/3 223/1/3
f 234/1/3 233/1/3 232/1/3
f 234/1/3 232/1/3 228/1/3
f 235/1/3 233/1/3 234/1/3
f 236/1/3 234/1/3 223/1/3
f 237/1/3 233/1/3 235/1/3
f 238/1/3 236/1/3 223/1/3
f 238/1/3 237/1/3 236/1/3
f 239/2/3 225/2/3 224/2/3
f 239/1/3 237/1/3 238/1/3
f 239/1/3 224/1/3 233/1/3
f 239/1/3 233/1/3 237/1/3
f 240/2/3 225/2/3 239/2/3
f 241/2/3 239/2/3 238/2/3
f 242/2/3 239/2/3 241/2/3
f 243/2/4 244/2/4 245/2/4
f 245/2/4 244/2/4 246/2/4
f 248/2/4 249/2/4 250/2/4
f 250/2/4 249/2/4 251/2/4
f 246/2/4 247/2/4 253/2/4
f 253/2/4 247/2/4 254/2/4
f 252/2/4 253/2/4 255/2/4
f 255/2/4 253/2/4 256/2/4
f 257/2/4 258/2/4 259/2/4
f 259/2/4 258/2/4 260/2/4
f 261/2/4 262/2/4 263/2/4
f 261/2/4 263/2/4 265/2/4
f 263/2/4 264/2/4 265/2/4
f 265/2/4 264/2/4 266/2/4
f 266/2/4 267/2/4 269/2/4
f 269/2/4 267/2/4 270/2/4
f 268/2/4 269/2/4 271/2/4
f 271/2/4 269/2/4 272/2/4
f 268/2/4 271/2/4 273/2/4
f 273/2/4 271/2/4 274/2/4
f 275/2/4 276/2/4 277/2/4
f 277/2/4 276/2/4 278/2/4
f 279/2/4 280/2/4 282/2/4
f 282/2/4 280/2/4 283/2/4
f 281/2/4 282/2/4 285/2/4
f 285/2/4 282/2/4 286/2/4
f 283/2/4 284/2/4 287/2/4
f 287/2/4 284/2/4 288/2/4
f 286/2/4 287/2/4 289/2/4
f 289/2/4 287/2/4 290/2/4
f 291/2/4 292/2/4 295/2/4
f 295/2/4 292/2/4 296/2/4
f 293/2/4 294/2/4 298/2/4
f 298/2/4 294/2/4 299/2/4
f 297/2/4 298/2/4 301/2/4
f 301/2/4 298/2/4 302/2/4
f 299/2/4 300/2/4 303/2/4
f 303/2/4 300/2/4 304/2/4
f 302/2/4 303/2/4 305/2/4
f 305/2/4 303/2/4 306/2/4
f 307/2/4 308/2/4 309/2/4
f 309/2/4 308/2/4 310/2/4
f 307/2/4 309/2/4 311/2/4
f 309/1/4 310/1/4 311/1/4
f 310/2/4 308/2/4 312/2/4
f 311/1/4 310/1/4 312/1/4
f 307/2/4 311/2/4 313/2/4
f 311/2/4 312/2/4 313/2/4
f 312/2/4 308/2/4 314/2/4
f 313/2/4 312/2/4 314/2/4
f 317/2/5 316/2/5 315/2/5
f 318/2/5 316/2/5 317/2/5
f 319/1/5 318/1/5 317/1/5
f 320/1/5 318/1/5 319/1/5
f 321/1/5 319/1/5 317/1/5
f 322/2/5 320/2/5 319/2/5
f 322/1/5 319/1/5 321/1/5
f 323/2/5 320/2/5 322/2/5
f 324/1/5 318/1/5 320/1/5
f 324/2/5 320/2/5 323/2/5
f 325/1/5 318/1/5 324/1/5
f 326/1/5 323/1/5 322/1/5
f 326/2/5 322/2/5 321/2/5
f 327/2/5 325/2/5 324/2/5
f 327/1/5 323/1/5 326/1/5
f 327/2/5 324/2/5 323/2/5
f 328/2/5 325/2/5 327/2/5
f 329/1/5 321/1/5 317/1/5
f 329/2/5 326/2/5 321/2/5
f 329/2/5 327/2/5 326/2/5
f 330/2/5 327/2/5 329/2/5
f 331/1/5 328/1/5 327/1/5
f 331/2/5 327/2/5 330/2/5
f 332/2/5 325/2/5 328/2/5
f 332/1/5 328/1/5 331/1/5
f 333/1/5 318/1/5 325/1/5
f 333/2/5 325/2/5 332/2/5
f 334/2/5 332/2/5 331/2/5
f 334/2/5 331/2/5 330/2/5
f 334/1/5 330/1/5 329/1/5
f 335/1/5 333/1/5 332/1/5
f 335/2/5 332/2/5 334/2/5
f 336/2/5 317/2/5 315/2/5
f 336/1/5 334/1/5 329/1/5
f 336/1/5 335/1/5 334/1/5
f 336/1/5 329/1/5 317/1/5
f 337/1/5 333/1/5 335/1/5
f 337/1/5 335/1/5 336/1/5
f 337/2/5 316/2/5 318/2/5
f 337/1/5 318/1/5 333/1/5
f 338/2/5 336/2/5 315/2/5
f 338/2/5 337/2/5 336/2/5
f 339/2/5 316/2/5 337/2/5
f 339/2/5 337/2/5 338/2/5
f 342/2/5 341/2/5 340/2/5
f 343/2/5 341/2/5 342/2/5
f 348/2/5 345/2/5 344/2/5
f 349/2/5 345/2/5 348/2/5
f 350/2/5 347/2/5 346/2/5
f 351/2/5 347/2/5 350/2/5
f 360/2/5 353/2/5 352/2/5
f 361/2/5 353/2/5 360/2/5
f 362/2/5 355/2/5 354/2/5
f 363/2/5 355/2/5 362/2/5
f 364/2/5 357/2/5 356/2/5
f 365/2/5 357/2/5 364/2/5
f 366/2/5 359/2/5 358/2/5
f 367/2/5 359/2/5 366/2/5
f 368/2/5 362/2/5 361/2/5
f 369/2/5 362/2/5 368/2/5
f 370/2/5 366/2/5 365/2/5
f 371/2/5 366/2/5 370/2/5
f 375/2/5 373/2/5 372/2/5
f 376/2/5 373/2/5 375/2/5
f 378/2/5 375/2/5 374/2/5
f 379/2/5 375/2/5 378/2/5
f 380/2/5 377/2/5 376/2/5
f 381/2/5 377/2/5 380/2/5
f 382/2/5 380/2/5 379/2/5
f 383/2/5 380/2/5 382/2/5
f 386/2/5 385/2/5 384/2/5
f 387/2/5 385/2/5 386/2/5
f 390/2/5 389/2/5 388/2/5
f 391/2/5 389/2/5 390/2/5
f 395/2/5 393/2/5 392/2/5
f 396/2/5 393/2/5 395/2/5
f 398/2/5 395/2/5 394/2/5
f 399/2/5 395/2/5 398/2/5
f 400/2/5 397/2/5 396/2/5
f 401/2/5 397/2/5 400/2/5
f 402/2/6 403/2/6 405/2/6
f 405/2/6 403/2/6 406/2/6
f 405/1/6 406/1/6 408/1/6
f 408/1/6 406/1/6 409/1/6
f 405/1/6 408/1/6 410/1/6
f 408/2/6 409/2/6 411/2/6
f 410/1/6 408/1/6 411/1/6
f 411/2/6 409/2/6 412/2/6
f 409/1/6 406/1/6 413/1/6
f 412/2/6 409/2/6 413/2/6
f 413/1/6 406/1/6 414/1/6
f 411/1/6 412/1/6 415/1/6
f 410/2/6 411/2/6 415/2/6
f 413/2/6 414/2/6 416/2/6
f 415/1/6 412/1/6 416/1/6
f 412/2/6 413/2/6 416/2/6
f 416/2/6 414/2/6 417/2/6
f 405/1/6 410/1/6 418/1/6
f 410/2/6 415/2/6 418/2/6
f 415/2/6 416/2/6 418/2/6
f 418/2/6 416/2/6 419/2/6
f 416/1/6 417/1/6 420/1/6
f 419/2/6 416/2/6 420/2/6
f 417/2/6 414/2/6 421/2/6
f 420/1/6 417/1/6 421/1/6
f 414/1/6 406/1/6 422/1/6
f 421/2/6 414/2/6 422/2/6
f 420/2/6 421/2/6 423/2/6
f 419/2/6 420/2/6 423/2/6
f 418/1/6 419/1/6 423/1/6
f 421/1/6 422/1/6 424/1/6
f 423/2/6 421/2/6 424/2/6
f 404/2/6 405/2/6 425/2/6
f 418/1/6 423/1/6 426/1/6
f 425/2/6 405/2/6 426/2/6
f 405/1/6 418/1/6 426/1/6
f 423/1/6 424/1/6 426/1/6
f 424/1/6 422/1/6 427/1/6
f 426/1/6 424/1/6 427/1/6
f 406/2/6 407/2/6 427/2/6
f 422/1/6 406/1/6 427/1/6
f 427/2/6 407/2/6 428/2/6
f 429/2/6 430/2/6 437/2/6
f 437/2/6 430/2/6 438/2/6
f 431/2/6 432/2/6 439/2/6
f 439/2/6 432/2/6 440/2/6
f 433/2/6 434/2/6 441/2/6
f 441/2/6 434/2/6 442/2/6
f 435/2/6 436/2/6 443/2/6
f 443/2/6 436/2/6 444/2/6
f 438/2/6 439/2/6 445/2/6
f 445/2/6 439/2/6 446/2/6
f 442/2/6 443/2/6 447/2/6
f 447/2/6 443/2/6 448/2/6
f 449/2/6 450/2/6 453/2/6
f 453/2/6 450/2/6 454/2/6
f 451/2/6 452/2/6 455/2/6
f 455/2/6 452/2/6 456/2/6
f 457/2/6 458/2/6 459/2/6
f 459/2/6 458/2/6 460/2/6
f 461/2/6 462/2/6 463/2/6
f 463/2/6 462/2/6 464/2/6
f 465/2/6 466/2/6 469/2/6
f 469/2/6 466/2/6 470/2/6
f 467/2/6 468/2/6 471/2/6
f 471/2/6 468/2/6 472/2/6
f 473/2/6 474/2/6 475/2/6
f 475/2/6 474/2/6 476/2/6
f 477/2/6 478/2/6 480/2/6
f 480/2/6 478/2/6 481/2/6
f 479/2/6 480/2/6 483/2/6
f 483/2/6 480/2/6 484/2/6
f 481/2/6 482/2/6 485/2/6
f 485/2/6 482/2/6 486/2/6
f 484/2/6 485/2/6 487/2/6
f 487/2/6 485/2/6 488/2/6
f 489/2/6 490/2/6 491/2/6
f 491/2/6 490/2/6 492/2/6
f 493/2/6 494/2/6 495/2/6
f 495/2/6 494/2/6 496/2/6
f 497/2/6 498/2/6 499/2/6
f 499/2/6 498/2/6 500/2/6
f 497/2/6 499/2/6 501/2/6
f 500/2/6 498/2/6 502/2/6
f 497/2/6 501/2/6 503/2/6
f 501/2/6 502/2/6 503/2/6
f 502/2/6 498/2/6 504/2/6
f 503/2/6 502/2/6 504/2/6
