# MagicaVoxel @ Ephtracy

# material
mtllib Sink.mtl
usemtl palette

# normals
vn -1 0 0
vn 1 0 0
vn 0 0 1
vn 0 0 -1
vn 0 -1 0
vn 0 1 0

# texcoords
vt 0.845703 0.5
vt 0.939453 0.5
vt 0.958984 0.5
vt 0.970703 0.5
vt 0.978516 0.5
vt 0.986328 0.5

# verts
v -18 0 14
v -18 0 -14
v -18 33 14
v -18 33 -14
v -18 34 14
v -18 34 -14
v -3 34 -12
v -3 34 -13
v -3 35 -11
v -3 35 -12
v -3 35 -13
v -3 35 -14
v -3 36 -11
v -3 36 -12
v -3 36 -13
v -3 36 -14
v -3 37 -12
v -3 37 -13
v -2 28 5
v -2 28 -10
v -2 33 6
v -2 33 5
v -2 33 -10
v -2 33 -11
v -2 34 6
v -2 34 5
v -2 34 -10
v -2 34 -11
v -1 33 5
v -1 33 -10
v -1 34 5
v -1 34 -10
v -1 34 -13
v -1 34 -14
v -1 35 -12
v -1 35 -13
v -1 36 -9
v -1 36 -10
v -1 36 -12
v -1 36 -13
v -1 36 -14
v -1 37 -8
v -1 37 -9
v -1 37 -12
v -1 37 -13
v -1 38 -7
v -1 38 -8
v -1 38 -11
v -1 38 -12
v -1 39 -4
v -1 39 -7
v -1 39 -10
v -1 39 -11
v -1 40 -4
v -1 40 -10
v 2 34 -12
v 2 34 -13
v 2 35 -11
v 2 35 -12
v 2 35 -13
v 2 35 -14
v 2 36 -11
v 2 36 -12
v 2 36 -13
v 2 36 -14
v 2 37 -12
v 2 37 -13
v 14 28 5
v 14 28 -10
v 14 33 6
v 14 33 5
v 14 33 -10
v 14 33 -11
v 14 34 6
v 14 34 5
v 14 34 -10
v 14 34 -11
v 15 33 5
v 15 33 -10
v 15 34 5
v 15 34 -10
v -15 33 5
v -15 33 -10
v -15 34 5
v -15 34 -10
v -14 28 5
v -14 28 -10
v -14 33 6
v -14 33 5
v -14 33 -10
v -14 33 -11
v -14 34 6
v -14 34 5
v -14 34 -10
v -14 34 -11
v -2 34 -12
v -2 34 -13
v -2 35 -11
v -2 35 -12
v -2 35 -13
v -2 35 -14
v -2 36 -11
v -2 36 -12
v -2 36 -13
v -2 36 -14
v -2 37 -12
v -2 37 -13
v 1 33 5
v 1 33 -10
v 1 34 5
v 1 34 -10
v 1 34 -13
v 1 34 -14
v 1 35 -12
v 1 35 -13
v 1 36 -9
v 1 36 -10
v 1 36 -12
v 1 36 -13
v 1 36 -14
v 1 37 -8
v 1 37 -9
v 1 37 -12
v 1 37 -13
v 1 38 -7
v 1 38 -8
v 1 38 -11
v 1 38 -12
v 1 39 -4
v 1 39 -7
v 1 39 -10
v 1 39 -11
v 1 40 -4
v 1 40 -10
v 2 28 5
v 2 28 -10
v 2 33 6
v 2 33 5
v 2 33 -10
v 2 33 -11
v 2 34 6
v 2 34 5
v 2 34 -10
v 2 34 -11
v 3 34 -12
v 3 34 -13
v 3 35 -11
v 3 35 -12
v 3 35 -13
v 3 35 -14
v 3 36 -11
v 3 36 -12
v 3 36 -13
v 3 36 -14
v 3 37 -12
v 3 37 -13
v 18 0 14
v 18 0 -14
v 18 33 14
v 18 33 -14
v 18 34 14
v 18 34 -14
v -18 0 14
v -18 33 14
v -18 34 14
v 18 0 14
v 18 33 14
v 18 34 14
v -1 39 -4
v -1 40 -4
v 1 39 -4
v 1 40 -4
v -1 38 -7
v -1 39 -7
v 1 38 -7
v 1 39 -7
v -1 37 -8
v -1 38 -8
v 1 37 -8
v 1 38 -8
v -1 36 -9
v -1 37 -9
v 1 36 -9
v 1 37 -9
v -15 33 -10
v -15 34 -10
v -14 28 -10
v -14 33 -10
v -14 34 -10
v -2 28 -10
v -2 33 -10
v -2 34 -10
v -1 33 -10
v -1 34 -10
v -1 36 -10
v 1 33 -10
v 1 34 -10
v 1 36 -10
v 2 28 -10
v 2 33 -10
v 2 34 -10
v 14 28 -10
v 14 33 -10
v 14 34 -10
v 15 33 -10
v 15 34 -10
v -14 33 -11
v -14 34 -11
v -3 35 -11
v -3 36 -11
v -2 33 -11
v -2 34 -11
v -2 35 -11
v -2 36 -11
v 2 33 -11
v 2 34 -11
v 2 35 -11
v 2 36 -11
v 3 35 -11
v 3 36 -11
v 14 33 -11
v 14 34 -11
v -3 34 -12
v -3 35 -12
v -3 36 -12
v -3 37 -12
v -2 34 -12
v -2 35 -12
v -2 36 -12
v -2 37 -12
v -1 35 -12
v -1 36 -12
v 1 35 -12
v 1 36 -12
v 2 34 -12
v 2 35 -12
v 2 36 -12
v 2 37 -12
v 3 34 -12
v 3 35 -12
v 3 36 -12
v 3 37 -12
v -14 33 6
v -14 34 6
v -2 33 6
v -2 34 6
v 2 33 6
v 2 34 6
v 14 33 6
v 14 34 6
v -15 33 5
v -15 34 5
v -14 28 5
v -14 33 5
v -14 34 5
v -2 28 5
v -2 33 5
v -2 34 5
v -1 33 5
v -1 34 5
v 1 33 5
v 1 34 5
v 2 28 5
v 2 33 5
v 2 34 5
v 14 28 5
v 14 33 5
v 14 34 5
v 15 33 5
v 15 34 5
v -1 39 -10
v -1 40 -10
v 1 39 -10
v 1 40 -10
v -1 38 -11
v -1 39 -11
v 1 38 -11
v 1 39 -11
v -1 37 -12
v -1 38 -12
v 1 37 -12
v 1 38 -12
v -3 34 -13
v -3 35 -13
v -3 36 -13
v -3 37 -13
v -2 34 -13
v -2 35 -13
v -2 36 -13
v -2 37 -13
v -1 35 -13
v -1 36 -13
v -1 37 -13
v 1 35 -13
v 1 36 -13
v 1 37 -13
v 2 34 -13
v 2 35 -13
v 2 36 -13
v 2 37 -13
v 3 34 -13
v 3 35 -13
v 3 36 -13
v 3 37 -13
v -18 0 -14
v -18 33 -14
v -18 34 -14
v -3 35 -14
v -3 36 -14
v -2 35 -14
v -2 36 -14
v -1 34 -14
v -1 36 -14
v 1 34 -14
v 1 36 -14
v 2 35 -14
v 2 36 -14
v 3 35 -14
v 3 36 -14
v 18 0 -14
v 18 33 -14
v 18 34 -14
v -18 0 14
v 18 0 14
v -18 0 -14
v 18 0 -14
v -3 35 -11
v -2 35 -11
v 2 35 -11
v 3 35 -11
v -3 35 -12
v -2 35 -12
v -1 35 -12
v 1 35 -12
v 2 35 -12
v 3 35 -12
v -3 35 -13
v -2 35 -13
v -1 35 -13
v 1 35 -13
v 2 35 -13
v 3 35 -13
v -3 35 -14
v -2 35 -14
v 2 35 -14
v 3 35 -14
v -1 36 -9
v 1 36 -9
v -1 36 -10
v 1 36 -10
v -1 37 -8
v 1 37 -8
v -1 37 -9
v 1 37 -9
v -1 38 -7
v 1 38 -7
v -1 38 -8
v 1 38 -8
v -1 39 -4
v 1 39 -4
v -1 39 -7
v 1 39 -7
v -14 28 5
v -2 28 5
v 2 28 5
v 14 28 5
v -14 28 -10
v -2 28 -10
v 2 28 -10
v 14 28 -10
v -14 33 6
v -2 33 6
v 2 33 6
v 14 33 6
v -15 33 5
v -14 33 5
v -2 33 5
v -1 33 5
v 1 33 5
v 2 33 5
v 14 33 5
v 15 33 5
v -15 33 -10
v -14 33 -10
v -2 33 -10
v -1 33 -10
v 1 33 -10
v 2 33 -10
v 14 33 -10
v 15 33 -10
v -14 33 -11
v -2 33 -11
v 2 33 -11
v 14 33 -11
v -18 34 14
v 18 34 14
v -17 34 13
v 17 34 13
v -14 34 6
v -2 34 6
v 2 34 6
v 14 34 6
v -15 34 5
v -14 34 5
v -2 34 5
v -1 34 5
v 1 34 5
v 2 34 5
v 14 34 5
v 15 34 5
v -15 34 -10
v -14 34 -10
v -2 34 -10
v -1 34 -10
v 1 34 -10
v 2 34 -10
v 14 34 -10
v 15 34 -10
v -14 34 -11
v -2 34 -11
v 2 34 -11
v 14 34 -11
v -3 34 -12
v -2 34 -12
v 2 34 -12
v 3 34 -12
v -17 34 -13
v -3 34 -13
v -2 34 -13
v -1 34 -13
v 1 34 -13
v 2 34 -13
v 3 34 -13
v 17 34 -13
v -18 34 -14
v -1 34 -14
v 1 34 -14
v 18 34 -14
v -3 36 -11
v -2 36 -11
v 2 36 -11
v 3 36 -11
v -3 36 -12
v -2 36 -12
v -1 36 -12
v 1 36 -12
v 2 36 -12
v 3 36 -12
v -3 36 -13
v -2 36 -13
v -1 36 -13
v 1 36 -13
v 2 36 -13
v 3 36 -13
v -3 36 -14
v -2 36 -14
v -1 36 -14
v 1 36 -14
v 2 36 -14
v 3 36 -14
v -3 37 -12
v -2 37 -12
v -1 37 -12
v 1 37 -12
v 2 37 -12
v 3 37 -12
v -3 37 -13
v -2 37 -13
v -1 37 -13
v 1 37 -13
v 2 37 -13
v 3 37 -13
v -1 38 -11
v 1 38 -11
v -1 38 -12
v 1 38 -12
v -1 39 -10
v 1 39 -10
v -1 39 -11
v 1 39 -11
v -1 40 -4
v 1 40 -4
v -1 40 -10
v 1 40 -10

# faces
f 3/3/1 2/3/1 1/3/1
f 4/3/1 2/3/1 3/3/1
f 5/6/1 4/6/1 3/6/1
f 6/6/1 4/6/1 5/6/1
f 10/4/1 8/4/1 7/4/1
f 11/4/1 8/4/1 10/4/1
f 13/4/1 10/4/1 9/4/1
f 14/1/1 11/1/1 10/1/1
f 14/4/1 10/4/1 13/4/1
f 15/4/1 12/4/1 11/4/1
f 15/1/1 11/1/1 14/1/1
f 16/4/1 12/4/1 15/4/1
f 17/4/1 15/4/1 14/4/1
f 18/4/1 15/4/1 17/4/1
f 22/3/1 20/3/1 19/3/1
f 23/3/1 20/3/1 22/3/1
f 25/5/1 22/5/1 21/5/1
f 26/5/1 22/5/1 25/5/1
f 27/5/1 24/5/1 23/5/1
f 28/5/1 24/5/1 27/5/1
f 31/5/1 30/5/1 29/5/1
f 32/5/1 30/5/1 31/5/1
f 35/4/1 34/4/1 33/4/1
f 35/4/1 33/4/1 32/4/1
f 36/4/1 34/4/1 35/4/1
f 38/4/1 35/4/1 32/4/1
f 39/4/1 35/4/1 38/4/1
f 40/4/1 34/4/1 36/4/1
f 41/4/1 34/4/1 40/4/1
f 43/4/1 39/4/1 38/4/1
f 43/4/1 38/4/1 37/4/1
f 43/4/1 40/4/1 39/4/1
f 44/4/1 40/4/1 43/4/1
f 45/4/1 40/4/1 44/4/1
f 47/4/1 43/4/1 42/4/1
f 47/4/1 44/4/1 43/4/1
f 48/4/1 44/4/1 47/4/1
f 49/4/1 44/4/1 48/4/1
f 51/4/1 47/4/1 46/4/1
f 51/4/1 48/4/1 47/4/1
f 52/4/1 48/4/1 51/4/1
f 53/4/1 48/4/1 52/4/1
f 54/4/1 51/4/1 50/4/1
f 54/4/1 52/4/1 51/4/1
f 55/4/1 52/4/1 54/4/1
f 59/4/1 57/4/1 56/4/1
f 60/4/1 57/4/1 59/4/1
f 62/4/1 59/4/1 58/4/1
f 63/4/1 59/4/1 62/4/1
f 64/4/1 61/4/1 60/4/1
f 65/4/1 61/4/1 64/4/1
f 66/4/1 64/4/1 63/4/1
f 67/4/1 64/4/1 66/4/1
f 71/3/1 69/3/1 68/3/1
f 72/3/1 69/3/1 71/3/1
f 74/5/1 71/5/1 70/5/1
f 75/5/1 71/5/1 74/5/1
f 76/5/1 73/5/1 72/5/1
f 77/5/1 73/5/1 76/5/1
f 80/5/1 79/5/1 78/5/1
f 81/5/1 79/5/1 80/5/1
f 82/5/2 83/5/2 84/5/2
f 84/5/2 83/5/2 85/5/2
f 86/3/2 87/3/2 89/3/2
f 89/3/2 87/3/2 90/3/2
f 88/5/2 89/5/2 92/5/2
f 92/5/2 89/5/2 93/5/2
f 90/5/2 91/5/2 94/5/2
f 94/5/2 91/5/2 95/5/2
f 96/4/2 97/4/2 99/4/2
f 99/4/2 97/4/2 100/4/2
f 98/4/2 99/4/2 102/4/2
f 102/4/2 99/4/2 103/4/2
f 100/4/2 101/4/2 104/4/2
f 104/4/2 101/4/2 105/4/2
f 103/4/2 104/4/2 106/4/2
f 106/4/2 104/4/2 107/4/2
f 108/5/2 109/5/2 110/5/2
f 110/5/2 109/5/2 111/5/2
f 112/4/2 113/4/2 114/4/2
f 111/4/2 112/4/2 114/4/2
f 114/4/2 113/4/2 115/4/2
f 111/4/2 114/4/2 117/4/2
f 117/4/2 114/4/2 118/4/2
f 115/4/2 113/4/2 119/4/2
f 119/4/2 113/4/2 120/4/2
f 117/4/2 118/4/2 122/4/2
f 116/4/2 117/4/2 122/4/2
f 118/4/2 119/4/2 122/4/2
f 122/4/2 119/4/2 123/4/2
f 123/4/2 119/4/2 124/4/2
f 121/4/2 122/4/2 126/4/2
f 122/4/2 123/4/2 126/4/2
f 126/4/2 123/4/2 127/4/2
f 127/4/2 123/4/2 128/4/2
f 125/4/2 126/4/2 130/4/2
f 126/4/2 127/4/2 130/4/2
f 130/4/2 127/4/2 131/4/2
f 131/4/2 127/4/2 132/4/2
f 129/4/2 130/4/2 133/4/2
f 130/4/2 131/4/2 133/4/2
f 133/4/2 131/4/2 134/4/2
f 135/3/2 136/3/2 138/3/2
f 138/3/2 136/3/2 139/3/2
f 137/5/2 138/5/2 141/5/2
f 141/5/2 138/5/2 142/5/2
f 139/5/2 140/5/2 143/5/2
f 143/5/2 140/5/2 144/5/2
f 145/4/2 146/4/2 148/4/2
f 148/4/2 146/4/2 149/4/2
f 147/4/2 148/4/2 151/4/2
f 148/2/2 149/2/2 152/2/2
f 151/4/2 148/4/2 152/4/2
f 149/4/2 150/4/2 153/4/2
f 152/2/2 149/2/2 153/2/2
f 153/4/2 150/4/2 154/4/2
f 152/4/2 153/4/2 155/4/2
f 155/4/2 153/4/2 156/4/2
f 157/3/2 158/3/2 159/3/2
f 159/3/2 158/3/2 160/3/2
f 159/6/2 160/6/2 161/6/2
f 161/6/2 160/6/2 162/6/2
f 166/3/3 164/3/3 163/3/3
f 167/6/3 165/6/3 164/6/3
f 167/3/3 164/3/3 166/3/3
f 168/6/3 165/6/3 167/6/3
f 171/4/3 170/4/3 169/4/3
f 172/4/3 170/4/3 171/4/3
f 175/4/3 174/4/3 173/4/3
f 176/4/3 174/4/3 175/4/3
f 179/4/3 178/4/3 177/4/3
f 180/4/3 178/4/3 179/4/3
f 183/4/3 182/4/3 181/4/3
f 184/4/3 182/4/3 183/4/3
f 188/5/3 186/5/3 185/5/3
f 189/5/3 186/5/3 188/5/3
f 190/3/3 188/3/3 187/3/3
f 191/3/3 188/3/3 190/3/3
f 193/5/3 192/5/3 191/5/3
f 194/5/3 192/5/3 193/5/3
f 197/4/3 195/4/3 194/4/3
f 198/4/3 195/4/3 197/4/3
f 200/5/3 197/5/3 196/5/3
f 201/5/3 197/5/3 200/5/3
f 202/3/3 200/3/3 199/3/3
f 203/3/3 200/3/3 202/3/3
f 205/5/3 204/5/3 203/5/3
f 206/5/3 204/5/3 205/5/3
f 211/5/3 208/5/3 207/5/3
f 212/5/3 208/5/3 211/5/3
f 213/4/3 210/4/3 209/4/3
f 214/4/3 210/4/3 213/4/3
f 219/4/3 218/4/3 217/4/3
f 220/4/3 218/4/3 219/4/3
f 221/5/3 216/5/3 215/5/3
f 222/5/3 216/5/3 221/5/3
f 227/4/3 224/4/3 223/4/3
f 228/4/3 224/4/3 227/4/3
f 229/4/3 226/4/3 225/4/3
f 230/4/3 226/4/3 229/4/3
f 231/4/3 229/4/3 228/4/3
f 232/4/3 229/4/3 231/4/3
f 236/4/3 234/4/3 233/4/3
f 237/4/3 234/4/3 236/4/3
f 239/4/3 236/4/3 235/4/3
f 240/4/3 236/4/3 239/4/3
f 241/4/3 238/4/3 237/4/3
f 242/4/3 238/4/3 241/4/3
f 243/5/4 244/5/4 245/5/4
f 245/5/4 244/5/4 246/5/4
f 247/5/4 248/5/4 249/5/4
f 249/5/4 248/5/4 250/5/4
f 251/5/4 252/5/4 254/5/4
f 254/5/4 252/5/4 255/5/4
f 253/3/4 254/3/4 256/3/4
f 256/3/4 254/3/4 257/3/4
f 257/5/4 258/5/4 259/5/4
f 259/5/4 258/5/4 260/5/4
f 261/5/4 262/5/4 264/5/4
f 264/5/4 262/5/4 265/5/4
f 263/3/4 264/3/4 266/3/4
f 266/3/4 264/3/4 267/3/4
f 267/5/4 268/5/4 269/5/4
f 269/5/4 268/5/4 270/5/4
f 271/4/4 272/4/4 273/4/4
f 273/4/4 272/4/4 274/4/4
f 275/4/4 276/4/4 277/4/4
f 277/4/4 276/4/4 278/4/4
f 279/4/4 280/4/4 281/4/4
f 281/4/4 280/4/4 282/4/4
f 283/4/4 284/4/4 287/4/4
f 287/4/4 284/4/4 288/4/4
f 285/4/4 286/4/4 289/4/4
f 289/4/4 286/4/4 290/4/4
f 288/4/4 289/4/4 291/4/4
f 291/4/4 289/4/4 292/4/4
f 292/4/4 293/4/4 295/4/4
f 295/4/4 293/4/4 296/4/4
f 294/4/4 295/4/4 298/4/4
f 298/4/4 295/4/4 299/4/4
f 297/4/4 298/4/4 301/4/4
f 301/4/4 298/4/4 302/4/4
f 299/4/4 300/4/4 303/4/4
f 303/4/4 300/4/4 304/4/4
f 308/4/4 309/4/4 310/4/4
f 310/4/4 309/4/4 311/4/4
f 306/6/4 307/6/4 312/6/4
f 306/6/4 312/6/4 314/6/4
f 312/4/4 313/4/4 314/4/4
f 314/4/4 313/4/4 315/4/4
f 316/4/4 317/4/4 318/4/4
f 318/4/4 317/4/4 319/4/4
f 305/3/4 306/3/4 320/3/4
f 306/6/4 314/6/4 321/6/4
f 320/3/4 306/3/4 321/3/4
f 321/6/4 314/6/4 322/6/4
f 325/3/5 324/3/5 323/3/5
f 326/3/5 324/3/5 325/3/5
f 331/4/5 328/4/5 327/4/5
f 332/4/5 328/4/5 331/4/5
f 335/4/5 330/4/5 329/4/5
f 336/4/5 330/4/5 335/4/5
f 338/4/5 333/4/5 332/4/5
f 339/4/5 333/4/5 338/4/5
f 340/4/5 335/4/5 334/4/5
f 341/4/5 335/4/5 340/4/5
f 343/4/5 338/4/5 337/4/5
f 344/4/5 338/4/5 343/4/5
f 345/4/5 342/4/5 341/4/5
f 346/4/5 342/4/5 345/4/5
f 349/4/5 348/4/5 347/4/5
f 350/4/5 348/4/5 349/4/5
f 353/4/5 352/4/5 351/4/5
f 354/4/5 352/4/5 353/4/5
f 357/4/5 356/4/5 355/4/5
f 358/4/5 356/4/5 357/4/5
f 361/4/5 360/4/5 359/4/5
f 362/4/5 360/4/5 361/4/5
f 363/3/6 364/3/6 367/3/6
f 367/3/6 364/3/6 368/3/6
f 365/3/6 366/3/6 369/3/6
f 369/3/6 366/3/6 370/3/6
f 371/3/6 372/3/6 376/3/6
f 376/3/6 372/3/6 377/3/6
f 373/3/6 374/3/6 380/3/6
f 380/3/6 374/3/6 381/3/6
f 375/3/6 376/3/6 383/3/6
f 383/3/6 376/3/6 384/3/6
f 377/3/6 378/3/6 385/3/6
f 385/3/6 378/3/6 386/3/6
f 379/3/6 380/3/6 387/3/6
f 387/3/6 380/3/6 388/3/6
f 381/3/6 382/3/6 389/3/6
f 389/3/6 382/3/6 390/3/6
f 384/3/6 385/3/6 391/3/6
f 391/3/6 385/3/6 392/3/6
f 388/3/6 389/3/6 393/3/6
f 393/3/6 389/3/6 394/3/6
f 395/6/6 396/6/6 397/6/6
f 397/6/6 396/6/6 398/6/6
f 397/5/6 398/5/6 399/5/6
f 399/5/6 398/5/6 400/5/6
f 400/5/6 398/5/6 401/5/6
f 401/5/6 398/5/6 402/5/6
f 397/5/6 399/5/6 403/5/6
f 403/5/6 399/5/6 404/5/6
f 400/5/6 401/5/6 405/5/6
f 405/5/6 401/5/6 406/5/6
f 406/5/6 401/5/6 407/5/6
f 407/5/6 401/5/6 408/5/6
f 402/5/6 398/5/6 409/5/6
f 409/5/6 398/5/6 410/5/6
f 397/5/6 403/5/6 411/5/6
f 406/5/6 407/5/6 414/5/6
f 414/5/6 407/5/6 415/5/6
f 410/5/6 398/5/6 418/5/6
f 411/5/6 412/5/6 419/5/6
f 413/5/6 414/5/6 420/5/6
f 415/5/6 416/5/6 421/5/6
f 417/5/6 418/5/6 422/5/6
f 419/5/6 420/5/6 423/5/6
f 420/5/6 414/5/6 424/5/6
f 423/5/6 420/5/6 424/5/6
f 421/5/6 422/5/6 425/5/6
f 415/5/6 421/5/6 425/5/6
f 425/5/6 422/5/6 426/5/6
f 395/6/6 397/6/6 427/6/6
f 397/5/6 411/5/6 427/5/6
f 411/5/6 419/5/6 427/5/6
f 419/5/6 423/5/6 427/5/6
f 427/5/6 423/5/6 428/5/6
f 424/5/6 414/5/6 429/5/6
f 429/5/6 414/5/6 430/5/6
f 415/5/6 425/5/6 431/5/6
f 431/5/6 425/5/6 432/5/6
f 426/5/6 422/5/6 433/5/6
f 398/6/6 396/6/6 434/6/6
f 422/5/6 418/5/6 434/5/6
f 433/5/6 422/5/6 434/5/6
f 418/5/6 398/5/6 434/5/6
f 427/6/6 428/6/6 435/6/6
f 429/6/6 430/6/6 435/6/6
f 395/6/6 427/6/6 435/6/6
f 428/6/6 429/6/6 435/6/6
f 435/6/6 430/6/6 436/6/6
f 431/6/6 432/6/6 437/6/6
f 432/6/6 433/6/6 437/6/6
f 433/6/6 434/6/6 437/6/6
f 434/6/6 396/6/6 438/6/6
f 437/6/6 434/6/6 438/6/6
f 439/4/6 440/4/6 443/4/6
f 443/4/6 440/4/6 444/4/6
f 441/4/6 442/4/6 447/4/6
f 447/4/6 442/4/6 448/4/6
f 444/4/6 445/4/6 450/4/6
f 450/4/6 445/4/6 451/4/6
f 446/4/6 447/4/6 452/4/6
f 452/4/6 447/4/6 453/4/6
f 449/4/6 450/4/6 455/4/6
f 455/4/6 450/4/6 456/4/6
f 451/4/6 452/4/6 457/4/6
f 457/4/6 452/4/6 458/4/6
f 453/4/6 454/4/6 459/4/6
f 459/4/6 454/4/6 460/4/6
f 461/4/6 462/4/6 467/4/6
f 467/4/6 462/4/6 468/4/6
f 463/4/6 464/4/6 469/4/6
f 469/4/6 464/4/6 470/4/6
f 465/4/6 466/4/6 471/4/6
f 471/4/6 466/4/6 472/4/6
f 473/4/6 474/4/6 475/4/6
f 475/4/6 474/4/6 476/4/6
f 477/4/6 478/4/6 479/4/6
f 479/4/6 478/4/6 480/4/6
f 481/4/6 482/4/6 483/4/6
f 483/4/6 482/4/6 484/4/6
