# MagicaVoxel @ Ephtracy

# material
mtllib TV.mtl
usemtl palette

# normals
vn -1 0 0
vn 1 0 0
vn 0 0 1
vn 0 0 -1
vn 0 -1 0
vn 0 1 0

# texcoords
vt 0.353516 0.5
vt 0.974609 0.5
vt 0.990234 0.5

# verts
v -5 0 10
v -5 0 9
v -5 0 -9
v -5 0 -10
v -5 1 10
v -5 1 9
v -5 1 -9
v -5 1 -10
v -5 4 11
v -5 4 -11
v -5 5 11
v -5 5 -11
v -3 5 4
v -3 5 -4
v -3 6 4
v -3 6 -4
v -2 6 3
v -2 6 -3
v -2 7 3
v -2 7 -3
v -1 0 9
v -1 0 -9
v -1 1 10
v -1 1 9
v -1 1 -9
v -1 1 -10
v -1 4 10
v -1 4 9
v -1 4 -9
v -1 4 -10
v -1 7 15
v -1 7 3
v -1 7 -3
v -1 7 -15
v -1 24 15
v -1 24 -15
v 0 7 16
v 0 7 15
v 0 7 -15
v 0 7 -16
v 0 24 15
v 0 24 -15
v 0 25 16
v 0 25 -16
v 1 7 17
v 1 7 16
v 1 7 -16
v 1 7 -17
v 1 25 16
v 1 25 -16
v 1 26 17
v 1 26 -17
v 1 0 9
v 1 0 -9
v 1 1 10
v 1 1 9
v 1 1 -9
v 1 1 -10
v 1 4 10
v 1 4 9
v 1 4 -9
v 1 4 -10
v 2 6 3
v 2 6 -3
v 2 7 3
v 2 7 -3
v 2 8 16
v 2 8 -16
v 2 25 16
v 2 25 -16
v 3 5 4
v 3 5 -4
v 3 6 4
v 3 6 -4
v 3 7 17
v 3 7 -17
v 3 8 16
v 3 8 -16
v 3 25 16
v 3 25 -16
v 3 26 17
v 3 26 -17
v 5 0 10
v 5 0 9
v 5 0 -9
v 5 0 -10
v 5 1 10
v 5 1 9
v 5 1 -9
v 5 1 -10
v 5 4 11
v 5 4 -11
v 5 5 11
v 5 5 -11
v 1 7 17
v 1 26 17
v 3 7 17
v 3 26 17
v 0 7 16
v 0 25 16
v 1 7 16
v 1 25 16
v -1 7 15
v -1 24 15
v 0 7 15
v 0 24 15
v -5 4 11
v -5 5 11
v 5 4 11
v 5 5 11
v -5 0 10
v -5 1 10
v -1 1 10
v -1 4 10
v 1 1 10
v 1 4 10
v 5 0 10
v 5 1 10
v -3 5 4
v -3 6 4
v 3 5 4
v 3 6 4
v -2 6 3
v -2 7 3
v -1 7 3
v 2 6 3
v 2 7 3
v -5 0 -9
v -5 1 -9
v -1 0 -9
v -1 1 -9
v -1 4 -9
v 1 0 -9
v 1 1 -9
v 1 4 -9
v 5 0 -9
v 5 1 -9
v 2 8 -16
v 2 25 -16
v 3 8 -16
v 3 25 -16
v 2 8 16
v 2 25 16
v 3 8 16
v 3 25 16
v -5 0 9
v -5 1 9
v -1 0 9
v -1 1 9
v -1 4 9
v 1 0 9
v 1 1 9
v 1 4 9
v 5 0 9
v 5 1 9
v -2 6 -3
v -2 7 -3
v -1 7 -3
v 2 6 -3
v 2 7 -3
v -3 5 -4
v -3 6 -4
v 3 5 -4
v 3 6 -4
v -5 0 -10
v -5 1 -10
v -1 1 -10
v -1 4 -10
v 1 1 -10
v 1 4 -10
v 5 0 -10
v 5 1 -10
v -5 4 -11
v -5 5 -11
v 5 4 -11
v 5 5 -11
v -1 7 -15
v -1 24 -15
v 0 7 -15
v 0 24 -15
v 0 7 -16
v 0 25 -16
v 1 7 -16
v 1 25 -16
v 1 7 -17
v 1 26 -17
v 3 7 -17
v 3 26 -17
v -5 0 10
v 5 0 10
v -5 0 9
v -1 0 9
v 1 0 9
v 5 0 9
v -5 0 -9
v -1 0 -9
v 1 0 -9
v 5 0 -9
v -5 0 -10
v 5 0 -10
v -5 4 11
v 5 4 11
v -1 4 10
v 1 4 10
v -1 4 9
v 1 4 9
v -1 4 -9
v 1 4 -9
v -1 4 -10
v 1 4 -10
v -5 4 -11
v 5 4 -11
v 1 7 17
v 3 7 17
v 0 7 16
v 1 7 16
v -1 7 15
v 0 7 15
v -1 7 3
v 2 7 3
v -1 7 -3
v 2 7 -3
v -1 7 -15
v 0 7 -15
v 0 7 -16
v 1 7 -16
v 1 7 -17
v 3 7 -17
v 2 25 16
v 3 25 16
v 2 25 -16
v 3 25 -16
v -5 1 10
v -1 1 10
v 1 1 10
v 5 1 10
v -5 1 9
v -1 1 9
v 1 1 9
v 5 1 9
v -5 1 -9
v -1 1 -9
v 1 1 -9
v 5 1 -9
v -5 1 -10
v -1 1 -10
v 1 1 -10
v 5 1 -10
v -5 5 11
v 5 5 11
v -3 5 4
v 3 5 4
v -3 5 -4
v 3 5 -4
v -5 5 -11
v 5 5 -11
v -3 6 4
v 3 6 4
v -2 6 3
v 2 6 3
v -2 6 -3
v 2 6 -3
v -3 6 -4
v 3 6 -4
v -2 7 3
v -1 7 3
v -2 7 -3
v -1 7 -3
v 2 8 16
v 3 8 16
v 2 8 -16
v 3 8 -16
v -1 24 15
v 0 24 15
v -1 24 -15
v 0 24 -15
v 0 25 16
v 1 25 16
v 0 25 -16
v 1 25 -16
v 1 26 17
v 3 26 17
v 1 26 -17
v 3 26 -17

# faces
f 5/1/1 2/1/1 1/1/1
f 6/1/1 2/1/1 5/1/1
f 7/1/1 4/1/1 3/1/1
f 8/1/1 4/1/1 7/1/1
f 11/1/1 10/1/1 9/1/1
f 12/1/1 10/1/1 11/1/1
f 15/3/1 14/3/1 13/3/1
f 16/3/1 14/3/1 15/3/1
f 19/3/1 18/3/1 17/3/1
f 20/3/1 18/3/1 19/3/1
f 24/1/1 22/1/1 21/1/1
f 25/1/1 22/1/1 24/1/1
f 27/1/1 24/1/1 23/1/1
f 28/1/1 24/1/1 27/1/1
f 29/1/1 26/1/1 25/1/1
f 30/1/1 26/1/1 29/1/1
f 35/3/1 33/3/1 32/3/1
f 35/3/1 34/3/1 33/3/1
f 35/3/1 32/3/1 31/3/1
f 36/3/1 34/3/1 35/3/1
f 41/3/1 38/3/1 37/3/1
f 42/3/1 40/3/1 39/3/1
f 43/3/1 41/3/1 37/3/1
f 43/3/1 42/3/1 41/3/1
f 44/3/1 40/3/1 42/3/1
f 44/3/1 42/3/1 43/3/1
f 49/3/1 46/3/1 45/3/1
f 50/3/1 48/3/1 47/3/1
f 51/3/1 49/3/1 45/3/1
f 51/3/1 50/3/1 49/3/1
f 52/3/1 48/3/1 50/3/1
f 52/3/1 50/3/1 51/3/1
f 53/1/2 54/1/2 56/1/2
f 56/1/2 54/1/2 57/1/2
f 55/1/2 56/1/2 59/1/2
f 59/1/2 56/1/2 60/1/2
f 57/1/2 58/1/2 61/1/2
f 61/1/2 58/1/2 62/1/2
f 63/3/2 64/3/2 65/3/2
f 65/3/2 64/3/2 66/3/2
f 67/2/2 68/2/2 69/2/2
f 69/2/2 68/2/2 70/2/2
f 71/3/2 72/3/2 73/3/2
f 73/3/2 72/3/2 74/3/2
f 75/3/2 76/3/2 77/3/2
f 77/3/2 76/3/2 78/3/2
f 75/3/2 77/3/2 79/3/2
f 78/3/2 76/3/2 80/3/2
f 75/3/2 79/3/2 81/3/2
f 79/3/2 80/3/2 81/3/2
f 80/3/2 76/3/2 82/3/2
f 81/3/2 80/3/2 82/3/2
f 83/1/2 84/1/2 87/1/2
f 87/1/2 84/1/2 88/1/2
f 85/1/2 86/1/2 89/1/2
f 89/1/2 86/1/2 90/1/2
f 91/1/2 92/1/2 93/1/2
f 93/1/2 92/1/2 94/1/2
f 97/3/3 96/3/3 95/3/3
f 98/3/3 96/3/3 97/3/3
f 101/3/3 100/3/3 99/3/3
f 102/3/3 100/3/3 101/3/3
f 105/3/3 104/3/3 103/3/3
f 106/3/3 104/3/3 105/3/3
f 109/1/3 108/1/3 107/1/3
f 110/1/3 108/1/3 109/1/3
f 113/1/3 112/1/3 111/1/3
f 115/1/3 113/1/3 111/1/3
f 115/1/3 114/1/3 113/1/3
f 116/1/3 114/1/3 115/1/3
f 117/1/3 115/1/3 111/1/3
f 118/1/3 115/1/3 117/1/3
f 121/3/3 120/3/3 119/3/3
f 122/3/3 120/3/3 121/3/3
f 125/3/3 124/3/3 123/3/3
f 126/3/3 125/3/3 123/3/3
f 127/3/3 125/3/3 126/3/3
f 130/1/3 129/1/3 128/1/3
f 131/1/3 129/1/3 130/1/3
f 134/1/3 132/1/3 131/1/3
f 135/1/3 132/1/3 134/1/3
f 136/1/3 134/1/3 133/1/3
f 137/1/3 134/1/3 136/1/3
f 140/3/3 139/3/3 138/3/3
f 141/3/3 139/3/3 140/3/3
f 142/3/4 143/3/4 144/3/4
f 144/3/4 143/3/4 145/3/4
f 146/1/4 147/1/4 148/1/4
f 148/1/4 147/1/4 149/1/4
f 149/1/4 150/1/4 152/1/4
f 152/1/4 150/1/4 153/1/4
f 151/1/4 152/1/4 154/1/4
f 154/1/4 152/1/4 155/1/4
f 156/3/4 157/3/4 158/3/4
f 156/3/4 158/3/4 159/3/4
f 159/3/4 158/3/4 160/3/4
f 161/3/4 162/3/4 163/3/4
f 163/3/4 162/3/4 164/3/4
f 165/1/4 166/1/4 167/1/4
f 165/1/4 167/1/4 169/1/4
f 167/1/4 168/1/4 169/1/4
f 169/1/4 168/1/4 170/1/4
f 165/1/4 169/1/4 171/1/4
f 171/1/4 169/1/4 172/1/4
f 173/1/4 174/1/4 175/1/4
f 175/1/4 174/1/4 176/1/4
f 177/3/4 178/3/4 179/3/4
f 179/3/4 178/3/4 180/3/4
f 181/3/4 182/3/4 183/3/4
f 183/3/4 182/3/4 184/3/4
f 185/3/4 186/3/4 187/3/4
f 187/3/4 186/3/4 188/3/4
f 191/1/5 190/1/5 189/1/5
f 192/1/5 190/1/5 191/1/5
f 193/1/5 190/1/5 192/1/5
f 194/1/5 190/1/5 193/1/5
f 196/1/5 193/1/5 192/1/5
f 197/1/5 193/1/5 196/1/5
f 199/1/5 196/1/5 195/1/5
f 199/1/5 198/1/5 197/1/5
f 199/1/5 197/1/5 196/1/5
f 200/1/5 198/1/5 199/1/5
f 203/1/5 202/1/5 201/1/5
f 204/1/5 202/1/5 203/1/5
f 205/1/5 203/1/5 201/1/5
f 206/1/5 202/1/5 204/1/5
f 207/1/5 205/1/5 201/1/5
f 207/1/5 206/1/5 205/1/5
f 208/1/5 202/1/5 206/1/5
f 208/1/5 206/1/5 207/1/5
f 209/1/5 207/1/5 201/1/5
f 210/1/5 202/1/5 208/1/5
f 211/1/5 209/1/5 201/1/5
f 211/1/5 210/1/5 209/1/5
f 212/1/5 202/1/5 210/1/5
f 212/1/5 210/1/5 211/1/5
f 216/3/5 214/3/5 213/3/5
f 218/3/5 216/3/5 215/3/5
f 219/3/5 218/3/5 217/3/5
f 220/3/5 214/3/5 216/3/5
f 220/3/5 218/3/5 219/3/5
f 220/3/5 216/3/5 218/3/5
f 222/3/5 214/3/5 220/3/5
f 223/3/5 222/3/5 221/3/5
f 224/3/5 222/3/5 223/3/5
f 225/3/5 222/3/5 224/3/5
f 226/3/5 222/3/5 225/3/5
f 227/3/5 222/3/5 226/3/5
f 228/3/5 214/3/5 222/3/5
f 228/3/5 222/3/5 227/3/5
f 231/3/5 230/3/5 229/3/5
f 232/3/5 230/3/5 231/3/5
f 233/1/6 234/1/6 237/1/6
f 237/1/6 234/1/6 238/1/6
f 235/1/6 236/1/6 239/1/6
f 239/1/6 236/1/6 240/1/6
f 238/1/6 239/1/6 242/1/6
f 242/1/6 239/1/6 243/1/6
f 241/1/6 242/1/6 245/1/6
f 245/1/6 242/1/6 246/1/6
f 243/1/6 244/1/6 247/1/6
f 247/1/6 244/1/6 248/1/6
f 249/1/6 250/1/6 251/1/6
f 251/1/6 250/1/6 252/1/6
f 249/1/6 251/1/6 253/1/6
f 252/1/6 250/1/6 254/1/6
f 249/1/6 253/1/6 255/1/6
f 253/1/6 254/1/6 255/1/6
f 254/1/6 250/1/6 256/1/6
f 255/1/6 254/1/6 256/1/6
f 257/3/6 258/3/6 259/3/6
f 259/3/6 258/3/6 260/3/6
f 257/3/6 259/3/6 261/3/6
f 260/3/6 258/3/6 262/3/6
f 257/3/6 261/3/6 263/3/6
f 261/3/6 262/3/6 263/3/6
f 262/3/6 258/3/6 264/3/6
f 263/3/6 262/3/6 264/3/6
f 265/3/6 266/3/6 267/3/6
f 267/3/6 266/3/6 268/3/6
f 269/3/6 270/3/6 271/3/6
f 271/3/6 270/3/6 272/3/6
f 273/3/6 274/3/6 275/3/6
f 275/3/6 274/3/6 276/3/6
f 277/3/6 278/3/6 279/3/6
f 279/3/6 278/3/6 280/3/6
f 281/3/6 282/3/6 283/3/6
f 283/3/6 282/3/6 284/3/6
