# MagicaVoxel @ Ephtracy

# material
mtllib Bar_stool.mtl
usemtl palette

# normals
vn -1 0 0
vn 1 0 0
vn 0 0 1
vn 0 0 -1
vn 0 -1 0
vn 0 1 0

# texcoords
vt 0.978516 0.5
vt 0.990234 0.5

# verts
v -5 12 2
v -5 12 -2
v -5 15 2
v -5 15 -2
v -4 4 3
v -4 4 -3
v -4 5 3
v -4 5 -3
v -4 12 3
v -4 12 2
v -4 12 -2
v -4 12 -3
v -4 15 3
v -4 15 2
v -4 15 -2
v -4 15 -3
v -3 0 3
v -3 0 -3
v -3 1 3
v -3 1 -3
v -3 4 4
v -3 4 3
v -3 4 -3
v -3 4 -4
v -3 5 4
v -3 5 3
v -3 5 -3
v -3 5 -4
v -3 12 4
v -3 12 3
v -3 12 -3
v -3 12 -4
v -3 15 4
v -3 15 3
v -3 15 -3
v -3 15 -4
v -2 4 1
v -2 4 -0
v -2 5 1
v -2 5 -0
v -2 11 1
v -2 11 -1
v -2 12 5
v -2 12 4
v -2 12 1
v -2 12 -1
v -2 12 -4
v -2 12 -5
v -2 15 5
v -2 15 4
v -2 15 -4
v -2 15 -5
v -1 1 1
v -1 1 -1
v -1 4 2
v -1 4 1
v -1 4 -1
v -1 4 -2
v -1 5 2
v -1 5 1
v -1 5 -1
v -1 5 -2
v -1 11 2
v -1 11 1
v -1 11 -1
v -1 11 -2
v -1 12 2
v -1 12 1
v -1 12 -1
v -1 12 -2
v 0 4 3
v 0 4 2
v 0 4 -2
v 0 4 -3
v 0 5 3
v 0 5 2
v 0 5 -2
v 0 5 -3
v 2 4 3
v 2 4 2
v 2 4 -2
v 2 4 -3
v 2 5 3
v 2 5 2
v 2 5 -2
v 2 5 -3
v 3 4 2
v 3 4 1
v 3 4 -0
v 3 4 -2
v 3 5 2
v 3 5 1
v 3 5 -0
v 3 5 -2
v -3 4 2
v -3 4 -0
v -3 4 -1
v -3 4 -2
v -3 5 2
v -3 5 -0
v -3 5 -1
v -3 5 -2
v -2 4 3
v -2 4 2
v -2 4 -2
v -2 4 -3
v -2 5 3
v -2 5 2
v -2 5 -2
v -2 5 -3
v 1 1 1
v 1 1 -1
v 1 4 3
v 1 4 1
v 1 4 -1
v 1 4 -3
v 1 5 3
v 1 5 1
v 1 5 -1
v 1 5 -3
v 1 11 2
v 1 11 1
v 1 11 -1
v 1 11 -2
v 1 12 2
v 1 12 1
v 1 12 -1
v 1 12 -2
v 2 4 -0
v 2 4 -1
v 2 5 -0
v 2 5 -1
v 2 11 1
v 2 11 -1
v 2 12 5
v 2 12 4
v 2 12 1
v 2 12 -1
v 2 12 -4
v 2 12 -5
v 2 15 5
v 2 15 4
v 2 15 -4
v 2 15 -5
v 3 0 3
v 3 0 -3
v 3 1 3
v 3 1 -3
v 3 4 4
v 3 4 3
v 3 4 -3
v 3 4 -4
v 3 5 4
v 3 5 3
v 3 5 -3
v 3 5 -4
v 3 12 4
v 3 12 3
v 3 12 -3
v 3 12 -4
v 3 15 4
v 3 15 3
v 3 15 -3
v 3 15 -4
v 4 4 3
v 4 4 -3
v 4 5 3
v 4 5 -3
v 4 12 3
v 4 12 2
v 4 12 -2
v 4 12 -3
v 4 15 3
v 4 15 2
v 4 15 -2
v 4 15 -3
v 5 12 2
v 5 12 -2
v 5 15 2
v 5 15 -2
v -2 12 5
v -2 15 5
v 2 12 5
v 2 15 5
v -3 4 4
v -3 5 4
v -3 12 4
v -3 15 4
v -2 12 4
v -2 15 4
v 2 12 4
v 2 15 4
v 3 4 4
v 3 5 4
v 3 12 4
v 3 15 4
v -4 4 3
v -4 5 3
v -4 12 3
v -4 15 3
v -3 0 3
v -3 1 3
v -3 4 3
v -3 5 3
v -3 12 3
v -3 15 3
v 3 0 3
v 3 1 3
v 3 4 3
v 3 5 3
v 3 12 3
v 3 15 3
v 4 4 3
v 4 5 3
v 4 12 3
v 4 15 3
v -5 12 2
v -5 15 2
v -4 12 2
v -4 15 2
v -1 4 2
v -1 5 2
v -1 11 2
v -1 12 2
v 0 4 2
v 0 5 2
v 1 11 2
v 1 12 2
v 4 12 2
v 4 15 2
v 5 12 2
v 5 15 2
v -2 4 1
v -2 5 1
v -2 11 1
v -2 12 1
v -1 1 1
v -1 4 1
v -1 5 1
v -1 11 1
v -1 12 1
v 1 1 1
v 1 4 1
v 1 5 1
v 1 11 1
v 1 12 1
v 2 11 1
v 2 12 1
v 3 4 1
v 3 5 1
v -3 4 -0
v -3 5 -0
v -2 4 -0
v -2 5 -0
v -3 4 -2
v -3 5 -2
v -2 4 -2
v -2 5 -2
v 2 4 -2
v 2 5 -2
v 3 4 -2
v 3 5 -2
v -2 4 -3
v -2 5 -3
v 0 4 -3
v 0 5 -3
v 1 4 -3
v 1 5 -3
v 2 4 -3
v 2 5 -3
v -2 4 3
v -2 5 3
v 0 4 3
v 0 5 3
v 1 4 3
v 1 5 3
v 2 4 3
v 2 5 3
v -3 4 2
v -3 5 2
v -2 4 2
v -2 5 2
v 2 4 2
v 2 5 2
v 3 4 2
v 3 5 2
v 2 4 -0
v 2 5 -0
v 3 4 -0
v 3 5 -0
v -3 4 -1
v -3 5 -1
v -2 11 -1
v -2 12 -1
v -1 1 -1
v -1 4 -1
v -1 5 -1
v -1 11 -1
v -1 12 -1
v 1 1 -1
v 1 4 -1
v 1 5 -1
v 1 11 -1
v 1 12 -1
v 2 4 -1
v 2 5 -1
v 2 11 -1
v 2 12 -1
v -5 12 -2
v -5 15 -2
v -4 12 -2
v -4 15 -2
v -1 4 -2
v -1 5 -2
v -1 11 -2
v -1 12 -2
v 0 4 -2
v 0 5 -2
v 1 11 -2
v 1 12 -2
v 4 12 -2
v 4 15 -2
v 5 12 -2
v 5 15 -2
v -4 4 -3
v -4 5 -3
v -4 12 -3
v -4 15 -3
v -3 0 -3
v -3 1 -3
v -3 4 -3
v -3 5 -3
v -3 12 -3
v -3 15 -3
v 3 0 -3
v 3 1 -3
v 3 4 -3
v 3 5 -3
v 3 12 -3
v 3 15 -3
v 4 4 -3
v 4 5 -3
v 4 12 -3
v 4 15 -3
v -3 4 -4
v -3 5 -4
v -3 12 -4
v -3 15 -4
v -2 12 -4
v -2 15 -4
v 2 12 -4
v 2 15 -4
v 3 4 -4
v 3 5 -4
v 3 12 -4
v 3 15 -4
v -2 12 -5
v -2 15 -5
v 2 12 -5
v 2 15 -5
v -3 0 3
v 3 0 3
v -3 0 -3
v 3 0 -3
v -3 4 4
v 3 4 4
v -4 4 3
v -3 4 3
v -2 4 3
v 0 4 3
v 1 4 3
v 2 4 3
v 3 4 3
v 4 4 3
v -3 4 2
v -2 4 2
v -1 4 2
v 0 4 2
v 2 4 2
v 3 4 2
v -2 4 1
v -1 4 1
v 1 4 1
v 3 4 1
v -3 4 -0
v -2 4 -0
v 2 4 -0
v 3 4 -0
v -3 4 -1
v -1 4 -1
v 1 4 -1
v 2 4 -1
v -3 4 -2
v -2 4 -2
v -1 4 -2
v 0 4 -2
v 2 4 -2
v 3 4 -2
v -4 4 -3
v -3 4 -3
v -2 4 -3
v 0 4 -3
v 1 4 -3
v 2 4 -3
v 3 4 -3
v 4 4 -3
v -3 4 -4
v 3 4 -4
v -1 11 2
v 1 11 2
v -2 11 1
v -1 11 1
v 1 11 1
v 2 11 1
v -2 11 -1
v -1 11 -1
v 1 11 -1
v 2 11 -1
v -1 11 -2
v 1 11 -2
v -2 12 5
v 2 12 5
v -3 12 4
v -2 12 4
v 2 12 4
v 3 12 4
v -4 12 3
v -3 12 3
v 3 12 3
v 4 12 3
v -5 12 2
v -4 12 2
v -1 12 2
v 1 12 2
v 4 12 2
v 5 12 2
v -2 12 1
v -1 12 1
v 1 12 1
v 2 12 1
v -2 12 -1
v -1 12 -1
v 1 12 -1
v 2 12 -1
v -5 12 -2
v -4 12 -2
v -1 12 -2
v 1 12 -2
v 4 12 -2
v 5 12 -2
v -4 12 -3
v -3 12 -3
v 3 12 -3
v 4 12 -3
v -3 12 -4
v -2 12 -4
v 2 12 -4
v 3 12 -4
v -2 12 -5
v 2 12 -5
v -3 1 3
v 3 1 3
v -1 1 1
v 1 1 1
v -1 1 -1
v 1 1 -1
v -3 1 -3
v 3 1 -3
v -3 5 4
v 3 5 4
v -4 5 3
v -3 5 3
v -2 5 3
v 0 5 3
v 1 5 3
v 2 5 3
v 3 5 3
v 4 5 3
v -3 5 2
v -2 5 2
v -1 5 2
v 0 5 2
v 2 5 2
v 3 5 2
v -2 5 1
v -1 5 1
v 1 5 1
v 3 5 1
v -3 5 -0
v -2 5 -0
v 2 5 -0
v 3 5 -0
v -3 5 -1
v -1 5 -1
v 1 5 -1
v 2 5 -1
v -3 5 -2
v -2 5 -2
v -1 5 -2
v 0 5 -2
v 2 5 -2
v 3 5 -2
v -4 5 -3
v -3 5 -3
v -2 5 -3
v 0 5 -3
v 1 5 -3
v 2 5 -3
v 3 5 -3
v 4 5 -3
v -3 5 -4
v 3 5 -4
v -2 15 5
v 2 15 5
v -3 15 4
v -2 15 4
v 2 15 4
v 3 15 4
v -4 15 3
v -3 15 3
v 3 15 3
v 4 15 3
v -5 15 2
v -4 15 2
v 4 15 2
v 5 15 2
v -5 15 -2
v -4 15 -2
v 4 15 -2
v 5 15 -2
v -4 15 -3
v -3 15 -3
v 3 15 -3
v 4 15 -3
v -3 15 -4
v -2 15 -4
v 2 15 -4
v 3 15 -4
v -2 15 -5
v 2 15 -5

# faces
f 3/2/1 2/2/1 1/2/1
f 4/2/1 2/2/1 3/2/1
f 7/1/1 6/1/1 5/1/1
f 8/1/1 6/1/1 7/1/1
f 13/2/1 10/2/1 9/2/1
f 14/2/1 10/2/1 13/2/1
f 15/2/1 12/2/1 11/2/1
f 16/2/1 12/2/1 15/2/1
f 19/1/1 18/1/1 17/1/1
f 20/1/1 18/1/1 19/1/1
f 25/1/1 22/1/1 21/1/1
f 26/1/1 22/1/1 25/1/1
f 27/1/1 24/1/1 23/1/1
f 28/1/1 24/1/1 27/1/1
f 33/2/1 30/2/1 29/2/1
f 34/2/1 30/2/1 33/2/1
f 35/2/1 32/2/1 31/2/1
f 36/2/1 32/2/1 35/2/1
f 39/1/1 38/1/1 37/1/1
f 40/1/1 38/1/1 39/1/1
f 45/1/1 42/1/1 41/1/1
f 46/1/1 42/1/1 45/1/1
f 49/2/1 44/2/1 43/2/1
f 50/2/1 44/2/1 49/2/1
f 51/2/1 48/2/1 47/2/1
f 52/2/1 48/2/1 51/2/1
f 56/1/1 54/1/1 53/1/1
f 57/1/1 54/1/1 56/1/1
f 59/1/1 56/1/1 55/1/1
f 60/1/1 56/1/1 59/1/1
f 61/1/1 58/1/1 57/1/1
f 62/1/1 58/1/1 61/1/1
f 64/1/1 61/1/1 60/1/1
f 65/1/1 61/1/1 64/1/1
f 67/1/1 64/1/1 63/1/1
f 68/1/1 64/1/1 67/1/1
f 69/1/1 66/1/1 65/1/1
f 70/1/1 66/1/1 69/1/1
f 75/1/1 72/1/1 71/1/1
f 76/1/1 72/1/1 75/1/1
f 77/1/1 74/1/1 73/1/1
f 78/1/1 74/1/1 77/1/1
f 83/1/1 80/1/1 79/1/1
f 84/1/1 80/1/1 83/1/1
f 85/1/1 82/1/1 81/1/1
f 86/1/1 82/1/1 85/1/1
f 91/1/1 88/1/1 87/1/1
f 92/1/1 88/1/1 91/1/1
f 93/1/1 90/1/1 89/1/1
f 94/1/1 90/1/1 93/1/1
f 95/1/2 96/1/2 99/1/2
f 99/1/2 96/1/2 100/1/2
f 97/1/2 98/1/2 101/1/2
f 101/1/2 98/1/2 102/1/2
f 103/1/2 104/1/2 107/1/2
f 107/1/2 104/1/2 108/1/2
f 105/1/2 106/1/2 109/1/2
f 109/1/2 106/1/2 110/1/2
f 111/1/2 112/1/2 114/1/2
f 114/1/2 112/1/2 115/1/2
f 113/1/2 114/1/2 117/1/2
f 117/1/2 114/1/2 118/1/2
f 115/1/2 116/1/2 119/1/2
f 119/1/2 116/1/2 120/1/2
f 118/1/2 119/1/2 122/1/2
f 122/1/2 119/1/2 123/1/2
f 121/1/2 122/1/2 125/1/2
f 125/1/2 122/1/2 126/1/2
f 123/1/2 124/1/2 127/1/2
f 127/1/2 124/1/2 128/1/2
f 129/1/2 130/1/2 131/1/2
f 131/1/2 130/1/2 132/1/2
f 133/1/2 134/1/2 137/1/2
f 137/1/2 134/1/2 138/1/2
f 135/2/2 136/2/2 141/2/2
f 141/2/2 136/2/2 142/2/2
f 139/2/2 140/2/2 143/2/2
f 143/2/2 140/2/2 144/2/2
f 145/1/2 146/1/2 147/1/2
f 147/1/2 146/1/2 148/1/2
f 149/1/2 150/1/2 153/1/2
f 153/1/2 150/1/2 154/1/2
f 151/1/2 152/1/2 155/1/2
f 155/1/2 152/1/2 156/1/2
f 157/2/2 158/2/2 161/2/2
f 161/2/2 158/2/2 162/2/2
f 159/2/2 160/2/2 163/2/2
f 163/2/2 160/2/2 164/2/2
f 165/1/2 166/1/2 167/1/2
f 167/1/2 166/1/2 168/1/2
f 169/2/2 170/2/2 173/2/2
f 173/2/2 170/2/2 174/2/2
f 171/2/2 172/2/2 175/2/2
f 175/2/2 172/2/2 176/2/2
f 177/2/2 178/2/2 179/2/2
f 179/2/2 178/2/2 180/2/2
f 183/2/3 182/2/3 181/2/3
f 184/2/3 182/2/3 183/2/3
f 189/2/3 188/2/3 187/2/3
f 190/2/3 188/2/3 189/2/3
f 193/1/3 186/1/3 185/1/3
f 194/1/3 186/1/3 193/1/3
f 195/2/3 192/2/3 191/2/3
f 196/2/3 192/2/3 195/2/3
f 203/1/3 198/1/3 197/1/3
f 204/1/3 198/1/3 203/1/3
f 205/2/3 200/2/3 199/2/3
f 206/2/3 200/2/3 205/2/3
f 207/1/3 202/1/3 201/1/3
f 208/1/3 202/1/3 207/1/3
f 213/1/3 210/1/3 209/1/3
f 214/1/3 210/1/3 213/1/3
f 215/2/3 212/2/3 211/2/3
f 216/2/3 212/2/3 215/2/3
f 219/2/3 218/2/3 217/2/3
f 220/2/3 218/2/3 219/2/3
f 225/1/3 222/1/3 221/1/3
f 226/1/3 222/1/3 225/1/3
f 227/1/3 224/1/3 223/1/3
f 228/1/3 224/1/3 227/1/3
f 231/2/3 230/2/3 229/2/3
f 232/2/3 230/2/3 231/2/3
f 238/1/3 234/1/3 233/1/3
f 239/1/3 234/1/3 238/1/3
f 240/1/3 236/1/3 235/1/3
f 241/1/3 236/1/3 240/1/3
f 242/1/3 238/1/3 237/1/3
f 243/1/3 238/1/3 242/1/3
f 244/1/3 240/1/3 239/1/3
f 245/1/3 240/1/3 244/1/3
f 247/1/3 246/1/3 245/1/3
f 248/1/3 246/1/3 247/1/3
f 249/1/3 244/1/3 243/1/3
f 250/1/3 244/1/3 249/1/3
f 253/1/3 252/1/3 251/1/3
f 254/1/3 252/1/3 253/1/3
f 257/1/3 256/1/3 255/1/3
f 258/1/3 256/1/3 257/1/3
f 261/1/3 260/1/3 259/1/3
f 262/1/3 260/1/3 261/1/3
f 265/1/3 264/1/3 263/1/3
f 266/1/3 264/1/3 265/1/3
f 269/1/3 268/1/3 267/1/3
f 270/1/3 268/1/3 269/1/3
f 271/1/4 272/1/4 273/1/4
f 273/1/4 272/1/4 274/1/4
f 275/1/4 276/1/4 277/1/4
f 277/1/4 276/1/4 278/1/4
f 279/1/4 280/1/4 281/1/4
f 281/1/4 280/1/4 282/1/4
f 283/1/4 284/1/4 285/1/4
f 285/1/4 284/1/4 286/1/4
f 287/1/4 288/1/4 289/1/4
f 289/1/4 288/1/4 290/1/4
f 291/1/4 292/1/4 296/1/4
f 296/1/4 292/1/4 297/1/4
f 293/1/4 294/1/4 298/1/4
f 298/1/4 294/1/4 299/1/4
f 295/1/4 296/1/4 300/1/4
f 300/1/4 296/1/4 301/1/4
f 297/1/4 298/1/4 302/1/4
f 302/1/4 298/1/4 303/1/4
f 301/1/4 302/1/4 305/1/4
f 305/1/4 302/1/4 306/1/4
f 303/1/4 304/1/4 307/1/4
f 307/1/4 304/1/4 308/1/4
f 309/2/4 310/2/4 311/2/4
f 311/2/4 310/2/4 312/2/4
f 313/1/4 314/1/4 317/1/4
f 317/1/4 314/1/4 318/1/4
f 315/1/4 316/1/4 319/1/4
f 319/1/4 316/1/4 320/1/4
f 321/2/4 322/2/4 323/2/4
f 323/2/4 322/2/4 324/2/4
f 325/1/4 326/1/4 331/1/4
f 331/1/4 326/1/4 332/1/4
f 327/2/4 328/2/4 333/2/4
f 333/2/4 328/2/4 334/2/4
f 329/1/4 330/1/4 335/1/4
f 335/1/4 330/1/4 336/1/4
f 337/1/4 338/1/4 341/1/4
f 341/1/4 338/1/4 342/1/4
f 339/2/4 340/2/4 343/2/4
f 343/2/4 340/2/4 344/2/4
f 347/2/4 348/2/4 349/2/4
f 349/2/4 348/2/4 350/2/4
f 345/1/4 346/1/4 353/1/4
f 353/1/4 346/1/4 354/1/4
f 351/2/4 352/2/4 355/2/4
f 355/2/4 352/2/4 356/2/4
f 357/2/4 358/2/4 359/2/4
f 359/2/4 358/2/4 360/2/4
f 363/1/5 362/1/5 361/1/5
f 364/1/5 362/1/5 363/1/5
f 368/1/5 366/1/5 365/1/5
f 369/1/5 366/1/5 368/1/5
f 370/1/5 366/1/5 369/1/5
f 371/1/5 366/1/5 370/1/5
f 372/1/5 366/1/5 371/1/5
f 373/1/5 366/1/5 372/1/5
f 375/1/5 368/1/5 367/1/5
f 375/1/5 369/1/5 368/1/5
f 376/1/5 369/1/5 375/1/5
f 378/1/5 371/1/5 370/1/5
f 379/1/5 374/1/5 373/1/5
f 379/1/5 373/1/5 372/1/5
f 380/1/5 374/1/5 379/1/5
f 382/1/5 378/1/5 377/1/5
f 383/1/5 371/1/5 378/1/5
f 383/1/5 378/1/5 382/1/5
f 384/1/5 374/1/5 380/1/5
f 385/1/5 375/1/5 367/1/5
f 386/1/5 382/1/5 381/1/5
f 387/1/5 384/1/5 383/1/5
f 388/1/5 374/1/5 384/1/5
f 388/1/5 384/1/5 387/1/5
f 389/1/5 385/1/5 367/1/5
f 389/1/5 386/1/5 385/1/5
f 390/1/5 382/1/5 386/1/5
f 390/1/5 386/1/5 389/1/5
f 391/1/5 387/1/5 383/1/5
f 392/1/5 387/1/5 391/1/5
f 393/1/5 389/1/5 367/1/5
f 395/1/5 391/1/5 390/1/5
f 396/1/5 391/1/5 395/1/5
f 398/1/5 374/1/5 388/1/5
f 399/1/5 394/1/5 393/1/5
f 399/1/5 393/1/5 367/1/5
f 400/1/5 394/1/5 399/1/5
f 401/1/5 394/1/5 400/1/5
f 402/1/5 391/1/5 396/1/5
f 403/1/5 391/1/5 402/1/5
f 404/1/5 398/1/5 397/1/5
f 405/1/5 374/1/5 398/1/5
f 405/1/5 398/1/5 404/1/5
f 406/1/5 374/1/5 405/1/5
f 407/1/5 401/1/5 400/1/5
f 407/1/5 403/1/5 402/1/5
f 407/1/5 405/1/5 404/1/5
f 407/1/5 404/1/5 403/1/5
f 407/1/5 402/1/5 401/1/5
f 408/1/5 405/1/5 407/1/5
f 412/1/5 410/1/5 409/1/5
f 413/1/5 410/1/5 412/1/5
f 415/1/5 412/1/5 411/1/5
f 416/1/5 412/1/5 415/1/5
f 417/1/5 414/1/5 413/1/5
f 418/1/5 414/1/5 417/1/5
f 419/1/5 417/1/5 416/1/5
f 420/1/5 417/1/5 419/1/5
f 424/2/5 422/2/5 421/2/5
f 425/2/5 422/2/5 424/2/5
f 428/2/5 424/2/5 423/2/5
f 428/2/5 426/2/5 425/2/5
f 428/2/5 425/2/5 424/2/5
f 429/2/5 426/2/5 428/2/5
f 432/2/5 428/2/5 427/2/5
f 432/2/5 430/2/5 429/2/5
f 432/2/5 429/2/5 428/2/5
f 433/2/5 430/2/5 432/2/5
f 434/2/5 430/2/5 433/2/5
f 435/2/5 430/2/5 434/2/5
f 437/2/5 432/2/5 431/2/5
f 437/2/5 433/2/5 432/2/5
f 438/2/5 433/2/5 437/2/5
f 439/2/5 436/2/5 435/2/5
f 439/2/5 435/2/5 434/2/5
f 440/2/5 436/2/5 439/2/5
f 441/2/5 437/2/5 431/2/5
f 444/2/5 436/2/5 440/2/5
f 445/2/5 442/2/5 441/2/5
f 445/2/5 441/2/5 431/2/5
f 446/2/5 442/2/5 445/2/5
f 447/2/5 442/2/5 446/2/5
f 448/2/5 444/2/5 443/2/5
f 449/2/5 436/2/5 444/2/5
f 449/2/5 444/2/5 448/2/5
f 450/2/5 436/2/5 449/2/5
f 451/2/5 447/2/5 446/2/5
f 451/2/5 448/2/5 447/2/5
f 451/2/5 449/2/5 448/2/5
f 452/2/5 449/2/5 451/2/5
f 453/2/5 449/2/5 452/2/5
f 454/2/5 449/2/5 453/2/5
f 455/2/5 453/2/5 452/2/5
f 456/2/5 453/2/5 455/2/5
f 457/2/5 453/2/5 456/2/5
f 458/2/5 453/2/5 457/2/5
f 459/2/5 457/2/5 456/2/5
f 460/2/5 457/2/5 459/2/5
f 461/1/6 462/1/6 463/1/6
f 463/1/6 462/1/6 464/1/6
f 461/1/6 463/1/6 465/1/6
f 464/1/6 462/1/6 466/1/6
f 461/1/6 465/1/6 467/1/6
f 465/1/6 466/1/6 467/1/6
f 466/1/6 462/1/6 468/1/6
f 467/1/6 466/1/6 468/1/6
f 469/1/6 470/1/6 472/1/6
f 472/1/6 470/1/6 473/1/6
f 473/1/6 470/1/6 474/1/6
f 474/1/6 470/1/6 475/1/6
f 475/1/6 470/1/6 476/1/6
f 476/1/6 470/1/6 477/1/6
f 471/1/6 472/1/6 479/1/6
f 472/1/6 473/1/6 479/1/6
f 479/1/6 473/1/6 480/1/6
f 474/1/6 475/1/6 482/1/6
f 477/1/6 478/1/6 483/1/6
f 476/1/6 477/1/6 483/1/6
f 483/1/6 478/1/6 484/1/6
f 481/1/6 482/1/6 486/1/6
f 482/1/6 475/1/6 487/1/6
f 486/1/6 482/1/6 487/1/6
f 484/1/6 478/1/6 488/1/6
f 471/1/6 479/1/6 489/1/6
f 485/1/6 486/1/6 490/1/6
f 487/1/6 488/1/6 491/1/6
f 488/1/6 478/1/6 492/1/6
f 491/1/6 488/1/6 492/1/6
f 471/1/6 489/1/6 493/1/6
f 489/1/6 490/1/6 493/1/6
f 490/1/6 486/1/6 494/1/6
f 493/1/6 490/1/6 494/1/6
f 487/1/6 491/1/6 495/1/6
f 495/1/6 491/1/6 496/1/6
f 471/1/6 493/1/6 497/1/6
f 494/1/6 495/1/6 499/1/6
f 499/1/6 495/1/6 500/1/6
f 492/1/6 478/1/6 502/1/6
f 497/1/6 498/1/6 503/1/6
f 471/1/6 497/1/6 503/1/6
f 503/1/6 498/1/6 504/1/6
f 504/1/6 498/1/6 505/1/6
f 500/1/6 495/1/6 506/1/6
f 506/1/6 495/1/6 507/1/6
f 501/1/6 502/1/6 508/1/6
f 502/1/6 478/1/6 509/1/6
f 508/1/6 502/1/6 509/1/6
f 509/1/6 478/1/6 510/1/6
f 504/1/6 505/1/6 511/1/6
f 506/1/6 507/1/6 511/1/6
f 508/1/6 509/1/6 511/1/6
f 507/1/6 508/1/6 511/1/6
f 505/1/6 506/1/6 511/1/6
f 511/1/6 509/1/6 512/1/6
f 513/2/6 514/2/6 516/2/6
f 516/2/6 514/2/6 517/2/6
f 515/2/6 516/2/6 520/2/6
f 517/2/6 518/2/6 520/2/6
f 516/2/6 517/2/6 520/2/6
f 520/2/6 518/2/6 521/2/6
f 519/2/6 520/2/6 524/2/6
f 521/2/6 522/2/6 524/2/6
f 520/2/6 521/2/6 524/2/6
f 524/2/6 522/2/6 525/2/6
f 523/2/6 524/2/6 527/2/6
f 525/2/6 526/2/6 527/2/6
f 524/2/6 525/2/6 527/2/6
f 527/2/6 526/2/6 528/2/6
f 528/2/6 526/2/6 529/2/6
f 529/2/6 526/2/6 530/2/6
f 528/2/6 529/2/6 531/2/6
f 531/2/6 529/2/6 532/2/6
f 532/2/6 529/2/6 533/2/6
f 533/2/6 529/2/6 534/2/6
f 532/2/6 533/2/6 535/2/6
f 535/2/6 533/2/6 536/2/6
f 536/2/6 533/2/6 537/2/6
f 537/2/6 533/2/6 538/2/6
f 536/2/6 537/2/6 539/2/6
f 539/2/6 537/2/6 540/2/6
