# MagicaVoxel @ Ephtracy

# material
mtllib Door.mtl
usemtl palette

# normals
vn -1 0 0
vn 1 0 0
vn 0 0 1
vn 0 0 -1
vn 0 -1 0
vn 0 1 0

# texcoords
vt 0.263672 0.5
vt 0.279297 0.5
vt 0.302734 0.5
vt 0.369141 0.5
vt 0.982422 0.5

# verts
v -3 12 -8
v -3 12 -10
v -3 17 -8
v -3 17 -10
v -2 0 10
v -2 0 -10
v -2 1 8
v -2 1 -8
v -2 12 -8
v -2 12 -10
v -2 13 8
v -2 13 -8
v -2 15 8
v -2 15 -8
v -2 17 -8
v -2 17 -10
v -2 29 8
v -2 29 -8
v -2 31 10
v -2 31 -10
v -1 1 8
v -1 1 -8
v -1 13 8
v -1 13 -8
v -1 15 8
v -1 15 -8
v -1 29 8
v -1 29 -8
v 1 1 8
v 1 1 -8
v 1 13 8
v 1 13 -8
v 1 15 8
v 1 15 -8
v 1 29 8
v 1 29 -8
v 2 0 10
v 2 0 -10
v 2 1 8
v 2 1 -8
v 2 12 -8
v 2 12 -10
v 2 13 8
v 2 13 -8
v 2 15 8
v 2 15 -8
v 2 17 -8
v 2 17 -10
v 2 29 8
v 2 29 -8
v 2 31 10
v 2 31 -10
v 3 12 -8
v 3 12 -10
v 3 17 -8
v 3 17 -10
v -2 0 10
v -2 31 10
v 2 0 10
v 2 31 10
v -3 12 -8
v -3 17 -8
v -2 1 -8
v -2 12 -8
v -2 13 -8
v -2 15 -8
v -2 17 -8
v -2 29 -8
v -1 1 -8
v -1 13 -8
v -1 15 -8
v -1 29 -8
v 1 1 -8
v 1 13 -8
v 1 15 -8
v 1 29 -8
v 2 1 -8
v 2 12 -8
v 2 13 -8
v 2 15 -8
v 2 17 -8
v 2 29 -8
v 3 12 -8
v 3 17 -8
v -2 1 8
v -2 13 8
v -2 15 8
v -2 29 8
v -1 1 8
v -1 13 8
v -1 15 8
v -1 29 8
v 1 1 8
v 1 13 8
v 1 15 8
v 1 29 8
v 2 1 8
v 2 13 8
v 2 15 8
v 2 29 8
v -3 12 -10
v -3 17 -10
v -2 0 -10
v -2 12 -10
v -2 17 -10
v -2 31 -10
v 2 0 -10
v 2 12 -10
v 2 17 -10
v 2 31 -10
v 3 12 -10
v 3 17 -10
v -2 0 10
v 2 0 10
v -2 0 -10
v 2 0 -10
v -3 12 -8
v -2 12 -8
v 2 12 -8
v 3 12 -8
v -3 12 -10
v -2 12 -10
v 2 12 -10
v 3 12 -10
v -2 13 8
v -1 13 8
v 1 13 8
v 2 13 8
v -2 13 -8
v -1 13 -8
v 1 13 -8
v 2 13 -8
v -2 29 8
v -1 29 8
v 1 29 8
v 2 29 8
v -2 29 -8
v -1 29 -8
v 1 29 -8
v 2 29 -8
v -2 1 8
v -1 1 8
v 1 1 8
v 2 1 8
v -2 1 -8
v -1 1 -8
v 1 1 -8
v 2 1 -8
v -2 15 8
v -1 15 8
v 1 15 8
v 2 15 8
v -2 15 -8
v -1 15 -8
v 1 15 -8
v 2 15 -8
v -3 17 -8
v -2 17 -8
v 2 17 -8
v 3 17 -8
v -3 17 -10
v -2 17 -10
v 2 17 -10
v 3 17 -10
v -2 31 10
v 2 31 10
v -2 31 -10
v 2 31 -10

# faces
f 3/5/1 2/5/1 1/5/1
f 4/5/1 2/5/1 3/5/1
f 7/1/1 6/1/1 5/1/1
f 8/1/1 6/1/1 7/1/1
f 9/1/1 6/1/1 8/1/1
f 10/1/1 6/1/1 9/1/1
f 11/1/1 7/1/1 5/1/1
f 13/1/1 11/1/1 5/1/1
f 13/1/1 12/1/1 11/1/1
f 14/1/1 12/1/1 13/1/1
f 17/1/1 13/1/1 5/1/1
f 18/1/1 16/1/1 15/1/1
f 19/1/1 17/1/1 5/1/1
f 19/1/1 18/1/1 17/1/1
f 20/1/1 16/1/1 18/1/1
f 20/1/1 18/1/1 19/1/1
f 23/2/1 22/2/1 21/2/1
f 24/2/1 22/2/1 23/2/1
f 27/2/1 26/2/1 25/2/1
f 28/2/1 26/2/1 27/2/1
f 29/2/2 30/2/2 31/2/2
f 31/2/2 30/2/2 32/2/2
f 33/2/2 34/2/2 35/2/2
f 35/2/2 34/2/2 36/2/2
f 37/1/2 38/1/2 39/1/2
f 39/1/2 38/1/2 40/1/2
f 40/1/2 38/1/2 41/1/2
f 41/1/2 38/1/2 42/1/2
f 37/1/2 39/1/2 43/1/2
f 37/1/2 43/1/2 45/1/2
f 43/1/2 44/1/2 45/1/2
f 45/1/2 44/1/2 46/1/2
f 37/1/2 45/1/2 49/1/2
f 47/1/2 48/1/2 50/1/2
f 37/1/2 49/1/2 51/1/2
f 49/1/2 50/1/2 51/1/2
f 50/1/2 48/1/2 52/1/2
f 51/1/2 50/1/2 52/1/2
f 53/5/2 54/5/2 55/5/2
f 55/5/2 54/5/2 56/5/2
f 59/1/3 58/1/3 57/1/3
f 60/1/3 58/1/3 59/1/3
f 64/5/3 62/5/3 61/5/3
f 65/5/3 62/5/3 64/5/3
f 66/5/3 62/5/3 65/5/3
f 67/5/3 62/5/3 66/5/3
f 69/1/3 64/1/3 63/1/3
f 69/1/3 65/1/3 64/1/3
f 70/1/3 65/1/3 69/1/3
f 71/1/3 68/1/3 67/1/3
f 71/1/3 67/1/3 66/1/3
f 72/1/3 68/1/3 71/1/3
f 77/1/3 74/1/3 73/1/3
f 78/1/3 74/1/3 77/1/3
f 79/1/3 74/1/3 78/1/3
f 80/1/3 76/1/3 75/1/3
f 81/1/3 76/1/3 80/1/3
f 82/1/3 76/1/3 81/1/3
f 83/5/3 79/5/3 78/5/3
f 83/5/3 81/5/3 80/5/3
f 83/5/3 80/5/3 79/5/3
f 84/5/3 81/5/3 83/5/3
f 85/1/4 86/1/4 89/1/4
f 89/1/4 86/1/4 90/1/4
f 87/1/4 88/1/4 91/1/4
f 91/1/4 88/1/4 92/1/4
f 93/1/4 94/1/4 97/1/4
f 97/1/4 94/1/4 98/1/4
f 95/1/4 96/1/4 99/1/4
f 99/1/4 96/1/4 100/1/4
f 101/5/4 102/5/4 104/5/4
f 104/5/4 102/5/4 105/5/4
f 103/1/4 104/1/4 107/1/4
f 105/1/4 106/1/4 107/1/4
f 104/1/4 105/1/4 107/1/4
f 107/1/4 106/1/4 108/1/4
f 108/1/4 106/1/4 109/1/4
f 109/1/4 106/1/4 110/1/4
f 108/5/4 109/5/4 111/5/4
f 111/5/4 109/5/4 112/5/4
f 115/1/5 114/1/5 113/1/5
f 116/1/5 114/1/5 115/1/5
f 121/5/5 118/5/5 117/5/5
f 122/5/5 118/5/5 121/5/5
f 123/5/5 120/5/5 119/5/5
f 124/5/5 120/5/5 123/5/5
f 129/1/5 126/1/5 125/1/5
f 130/1/5 126/1/5 129/1/5
f 131/1/5 128/1/5 127/1/5
f 132/1/5 128/1/5 131/1/5
f 137/1/5 134/1/5 133/1/5
f 138/1/5 134/1/5 137/1/5
f 139/1/5 136/1/5 135/1/5
f 140/1/5 136/1/5 139/1/5
f 141/1/6 142/1/6 145/1/6
f 145/1/6 142/1/6 146/1/6
f 143/1/6 144/1/6 147/1/6
f 147/1/6 144/1/6 148/1/6
f 149/1/6 150/1/6 153/1/6
f 153/1/6 150/1/6 154/1/6
f 151/1/6 152/1/6 155/1/6
f 155/1/6 152/1/6 156/1/6
f 157/5/6 158/5/6 161/5/6
f 161/5/6 158/5/6 162/5/6
f 159/5/6 160/5/6 163/5/6
f 163/5/6 160/5/6 164/5/6
f 165/1/6 166/1/6 167/1/6
f 167/1/6 166/1/6 168/1/6
