# MagicaVoxel @ Ephtracy

# material
mtllib Wall_Light.mtl
usemtl palette

# normals
vn -1 0 0
vn 1 0 0
vn 0 0 1
vn 0 0 -1
vn 0 -1 0
vn 0 1 0

# texcoords
vt 0.517578 0.5
vt 0.912109 0.5
vt 0.916016 0.5
vt 0.970703 0.5

# verts
v -3 7 1
v -3 7 -0
v -3 7 -3
v -3 7 -5
v -3 8 1
v -3 8 -0
v -3 8 -3
v -3 8 -5
v -2 6 1
v -2 6 -0
v -2 6 -3
v -2 6 -5
v -2 7 1
v -2 7 -0
v -2 7 -2
v -2 7 -3
v -2 7 -5
v -2 7 -6
v -2 8 1
v -2 8 -0
v -2 8 -2
v -2 8 -3
v -2 8 -5
v -2 8 -6
v -2 9 1
v -2 9 -0
v -2 9 -3
v -2 9 -5
v -1 0 1
v -1 0 -1
v -1 2 -0
v -1 2 -1
v -1 5 -3
v -1 5 -4
v -1 5 -5
v -1 6 1
v -1 6 -0
v -1 6 -2
v -1 6 -3
v -1 6 -4
v -1 6 -5
v -1 6 -6
v -1 7 -0
v -1 7 -2
v -1 7 -3
v -1 7 -5
v -1 7 -6
v -1 7 -7
v -1 8 -0
v -1 8 -2
v -1 8 -3
v -1 8 -5
v -1 8 -6
v -1 8 -7
v -1 9 1
v -1 9 -0
v -1 9 -2
v -1 9 -3
v -1 9 -5
v -1 9 -6
v -1 10 1
v -1 10 -0
v -1 10 -3
v -1 10 -5
v 1 0 1
v 1 0 -1
v 1 2 -0
v 1 2 -1
v 1 5 -3
v 1 5 -4
v 1 5 -5
v 1 6 1
v 1 6 -0
v 1 6 -2
v 1 6 -3
v 1 6 -4
v 1 6 -5
v 1 6 -6
v 1 7 -0
v 1 7 -2
v 1 7 -3
v 1 7 -5
v 1 7 -6
v 1 7 -7
v 1 8 -0
v 1 8 -2
v 1 8 -3
v 1 8 -5
v 1 8 -6
v 1 8 -7
v 1 9 1
v 1 9 -0
v 1 9 -2
v 1 9 -3
v 1 9 -5
v 1 9 -6
v 1 10 1
v 1 10 -0
v 1 10 -3
v 1 10 -5
v 2 6 1
v 2 6 -0
v 2 6 -3
v 2 6 -5
v 2 7 1
v 2 7 -0
v 2 7 -2
v 2 7 -3
v 2 7 -5
v 2 7 -6
v 2 8 1
v 2 8 -0
v 2 8 -2
v 2 8 -3
v 2 8 -5
v 2 8 -6
v 2 9 1
v 2 9 -0
v 2 9 -3
v 2 9 -5
v 3 7 1
v 3 7 -0
v 3 7 -3
v 3 7 -5
v 3 8 1
v 3 8 -0
v 3 8 -3
v 3 8 -5
v -3 7 1
v -3 8 1
v -2 6 1
v -2 7 1
v -2 8 1
v -2 9 1
v -1 0 1
v -1 6 1
v -1 9 1
v -1 10 1
v 1 0 1
v 1 6 1
v 1 9 1
v 1 10 1
v 2 6 1
v 2 7 1
v 2 8 1
v 2 9 1
v 3 7 1
v 3 8 1
v -2 7 -2
v -2 8 -2
v -1 6 -2
v -1 7 -2
v -1 8 -2
v -1 9 -2
v 1 6 -2
v 1 7 -2
v 1 8 -2
v 1 9 -2
v 2 7 -2
v 2 8 -2
v -3 7 -3
v -3 8 -3
v -2 6 -3
v -2 7 -3
v -2 8 -3
v -2 9 -3
v -1 5 -3
v -1 6 -3
v -1 7 -3
v -1 8 -3
v -1 9 -3
v -1 10 -3
v 1 5 -3
v 1 6 -3
v 1 7 -3
v 1 8 -3
v 1 9 -3
v 1 10 -3
v 2 6 -3
v 2 7 -3
v 2 8 -3
v 2 9 -3
v 3 7 -3
v 3 8 -3
v -3 7 -0
v -3 8 -0
v -2 6 -0
v -2 7 -0
v -2 8 -0
v -2 9 -0
v -1 2 -0
v -1 6 -0
v -1 7 -0
v -1 8 -0
v -1 9 -0
v -1 10 -0
v 1 2 -0
v 1 6 -0
v 1 7 -0
v 1 8 -0
v 1 9 -0
v 1 10 -0
v 2 6 -0
v 2 7 -0
v 2 8 -0
v 2 9 -0
v 3 7 -0
v 3 8 -0
v -1 0 -1
v -1 2 -1
v 1 0 -1
v 1 2 -1
v -3 7 -5
v -3 8 -5
v -2 6 -5
v -2 7 -5
v -2 8 -5
v -2 9 -5
v -1 5 -5
v -1 6 -5
v -1 7 -5
v -1 8 -5
v -1 9 -5
v -1 10 -5
v 1 5 -5
v 1 6 -5
v 1 7 -5
v 1 8 -5
v 1 9 -5
v 1 10 -5
v 2 6 -5
v 2 7 -5
v 2 8 -5
v 2 9 -5
v 3 7 -5
v 3 8 -5
v -2 7 -6
v -2 8 -6
v -1 6 -6
v -1 7 -6
v -1 8 -6
v -1 9 -6
v 1 6 -6
v 1 7 -6
v 1 8 -6
v 1 9 -6
v 2 7 -6
v 2 8 -6
v -1 7 -7
v -1 8 -7
v 1 7 -7
v 1 8 -7
v -1 0 1
v 1 0 1
v -1 0 -1
v 1 0 -1
v -1 5 -3
v 1 5 -3
v -1 5 -4
v 1 5 -4
v -1 5 -5
v 1 5 -5
v -2 6 1
v -1 6 1
v 1 6 1
v 2 6 1
v -2 6 -0
v -1 6 -0
v 1 6 -0
v 2 6 -0
v -1 6 -2
v 1 6 -2
v -2 6 -3
v -1 6 -3
v 1 6 -3
v 2 6 -3
v -1 6 -4
v 1 6 -4
v -2 6 -5
v -1 6 -5
v 1 6 -5
v 2 6 -5
v -1 6 -6
v 1 6 -6
v -3 7 1
v -2 7 1
v 2 7 1
v 3 7 1
v -3 7 -0
v -2 7 -0
v -1 7 -0
v 1 7 -0
v 2 7 -0
v 3 7 -0
v -2 7 -2
v -1 7 -2
v 1 7 -2
v 2 7 -2
v -3 7 -3
v -2 7 -3
v -1 7 -3
v 1 7 -3
v 2 7 -3
v 3 7 -3
v -3 7 -5
v -2 7 -5
v -1 7 -5
v 1 7 -5
v 2 7 -5
v 3 7 -5
v -2 7 -6
v -1 7 -6
v 1 7 -6
v 2 7 -6
v -1 7 -7
v 1 7 -7
v -1 2 -0
v 1 2 -0
v -1 2 -1
v 1 2 -1
v -3 8 1
v -2 8 1
v 2 8 1
v 3 8 1
v -3 8 -0
v -2 8 -0
v -1 8 -0
v 1 8 -0
v 2 8 -0
v 3 8 -0
v -2 8 -2
v -1 8 -2
v 1 8 -2
v 2 8 -2
v -3 8 -3
v -2 8 -3
v -1 8 -3
v 1 8 -3
v 2 8 -3
v 3 8 -3
v -3 8 -5
v -2 8 -5
v -1 8 -5
v 1 8 -5
v 2 8 -5
v 3 8 -5
v -2 8 -6
v -1 8 -6
v 1 8 -6
v 2 8 -6
v -1 8 -7
v 1 8 -7
v -2 9 1
v -1 9 1
v 1 9 1
v 2 9 1
v -2 9 -0
v -1 9 -0
v 1 9 -0
v 2 9 -0
v -1 9 -2
v 1 9 -2
v -2 9 -3
v -1 9 -3
v 1 9 -3
v 2 9 -3
v -2 9 -5
v -1 9 -5
v 1 9 -5
v 2 9 -5
v -1 9 -6
v 1 9 -6
v -1 10 1
v 1 10 1
v -1 10 -0
v 1 10 -0
v -1 10 -3
v 1 10 -3
v -1 10 -5
v 1 10 -5

# faces
f 5/4/1 2/4/1 1/4/1
f 6/4/1 2/4/1 5/4/1
f 7/3/1 4/3/1 3/3/1
f 8/3/1 4/3/1 7/3/1
f 13/4/1 10/4/1 9/4/1
f 14/4/1 10/4/1 13/4/1
f 16/3/1 12/3/1 11/3/1
f 17/3/1 12/3/1 16/3/1
f 21/3/1 16/3/1 15/3/1
f 22/3/1 16/3/1 21/3/1
f 23/3/1 18/3/1 17/3/1
f 24/3/1 18/3/1 23/3/1
f 25/4/1 20/4/1 19/4/1
f 26/4/1 20/4/1 25/4/1
f 27/3/1 23/3/1 22/3/1
f 28/3/1 23/3/1 27/3/1
f 31/4/1 30/4/1 29/4/1
f 32/4/1 30/4/1 31/4/1
f 36/4/1 31/4/1 29/4/1
f 37/4/1 31/4/1 36/4/1
f 39/2/1 34/2/1 33/2/1
f 40/3/1 35/3/1 34/3/1
f 40/2/1 34/2/1 39/2/1
f 41/3/1 35/3/1 40/3/1
f 44/3/1 39/3/1 38/3/1
f 45/3/1 39/3/1 44/3/1
f 46/3/1 42/3/1 41/3/1
f 47/3/1 42/3/1 46/3/1
f 49/4/1 44/4/1 43/4/1
f 50/4/1 44/4/1 49/4/1
f 53/3/1 48/3/1 47/3/1
f 54/3/1 48/3/1 53/3/1
f 57/3/1 51/3/1 50/3/1
f 58/3/1 51/3/1 57/3/1
f 59/3/1 53/3/1 52/3/1
f 60/3/1 53/3/1 59/3/1
f 61/4/1 56/4/1 55/4/1
f 62/4/1 56/4/1 61/4/1
f 63/3/1 59/3/1 58/3/1
f 64/3/1 59/3/1 63/3/1
f 65/4/2 66/4/2 67/4/2
f 67/4/2 66/4/2 68/4/2
f 65/4/2 67/4/2 72/4/2
f 72/4/2 67/4/2 73/4/2
f 69/2/2 70/2/2 75/2/2
f 70/3/2 71/3/2 76/3/2
f 75/2/2 70/2/2 76/2/2
f 76/3/2 71/3/2 77/3/2
f 74/3/2 75/3/2 80/3/2
f 80/3/2 75/3/2 81/3/2
f 77/3/2 78/3/2 82/3/2
f 82/3/2 78/3/2 83/3/2
f 79/4/2 80/4/2 85/4/2
f 85/4/2 80/4/2 86/4/2
f 83/3/2 84/3/2 89/3/2
f 89/3/2 84/3/2 90/3/2
f 86/3/2 87/3/2 93/3/2
f 93/3/2 87/3/2 94/3/2
f 88/3/2 89/3/2 95/3/2
f 95/3/2 89/3/2 96/3/2
f 91/4/2 92/4/2 97/4/2
f 97/4/2 92/4/2 98/4/2
f 94/3/2 95/3/2 99/3/2
f 99/3/2 95/3/2 100/3/2
f 101/4/2 102/4/2 105/4/2
f 105/4/2 102/4/2 106/4/2
f 103/3/2 104/3/2 108/3/2
f 108/3/2 104/3/2 109/3/2
f 107/3/2 108/3/2 113/3/2
f 113/3/2 108/3/2 114/3/2
f 109/3/2 110/3/2 115/3/2
f 115/3/2 110/3/2 116/3/2
f 111/4/2 112/4/2 117/4/2
f 117/4/2 112/4/2 118/4/2
f 114/3/2 115/3/2 119/3/2
f 119/3/2 115/3/2 120/3/2
f 121/4/2 122/4/2 125/4/2
f 125/4/2 122/4/2 126/4/2
f 123/3/2 124/3/2 127/3/2
f 127/3/2 124/3/2 128/3/2
f 132/4/3 130/4/3 129/4/3
f 133/4/3 130/4/3 132/4/3
f 136/4/3 132/4/3 131/4/3
f 136/4/3 134/4/3 133/4/3
f 136/4/3 133/4/3 132/4/3
f 137/4/3 134/4/3 136/4/3
f 139/4/3 136/4/3 135/4/3
f 139/4/3 138/4/3 137/4/3
f 139/4/3 137/4/3 136/4/3
f 140/4/3 138/4/3 139/4/3
f 141/4/3 138/4/3 140/4/3
f 142/4/3 138/4/3 141/4/3
f 143/4/3 141/4/3 140/4/3
f 144/4/3 141/4/3 143/4/3
f 145/4/3 141/4/3 144/4/3
f 146/4/3 141/4/3 145/4/3
f 147/4/3 145/4/3 144/4/3
f 148/4/3 145/4/3 147/4/3
f 152/3/3 150/3/3 149/3/3
f 153/3/3 150/3/3 152/3/3
f 155/3/3 152/3/3 151/3/3
f 156/3/3 152/3/3 155/3/3
f 157/3/3 154/3/3 153/3/3
f 158/3/3 154/3/3 157/3/3
f 159/3/3 157/3/3 156/3/3
f 160/3/3 157/3/3 159/3/3
f 164/3/3 162/3/3 161/3/3
f 165/3/3 162/3/3 164/3/3
f 168/3/3 164/3/3 163/3/3
f 169/3/3 164/3/3 168/3/3
f 170/3/3 166/3/3 165/3/3
f 171/3/3 166/3/3 170/3/3
f 173/2/3 168/2/3 167/2/3
f 174/2/3 168/2/3 173/2/3
f 177/3/3 172/3/3 171/3/3
f 178/3/3 172/3/3 177/3/3
f 179/3/3 175/3/3 174/3/3
f 180/3/3 175/3/3 179/3/3
f 181/3/3 177/3/3 176/3/3
f 182/3/3 177/3/3 181/3/3
f 183/3/3 181/3/3 180/3/3
f 184/3/3 181/3/3 183/3/3
f 185/4/4 186/4/4 188/4/4
f 188/4/4 186/4/4 189/4/4
f 187/4/4 188/4/4 192/4/4
f 189/4/4 190/4/4 192/4/4
f 188/4/4 189/4/4 192/4/4
f 192/4/4 190/4/4 193/4/4
f 193/4/4 190/4/4 194/4/4
f 194/4/4 190/4/4 195/4/4
f 191/4/4 192/4/4 197/4/4
f 192/4/4 193/4/4 197/4/4
f 197/4/4 193/4/4 198/4/4
f 198/4/4 193/4/4 199/4/4
f 195/4/4 196/4/4 200/4/4
f 194/4/4 195/4/4 200/4/4
f 200/4/4 196/4/4 201/4/4
f 201/4/4 196/4/4 202/4/4
f 198/4/4 199/4/4 203/4/4
f 200/4/4 201/4/4 203/4/4
f 199/4/4 200/4/4 203/4/4
f 203/4/4 201/4/4 204/4/4
f 204/4/4 201/4/4 205/4/4
f 205/4/4 201/4/4 206/4/4
f 204/4/4 205/4/4 207/4/4
f 207/4/4 205/4/4 208/4/4
f 209/4/4 210/4/4 211/4/4
f 211/4/4 210/4/4 212/4/4
f 213/3/4 214/3/4 216/3/4
f 216/3/4 214/3/4 217/3/4
f 215/3/4 216/3/4 220/3/4
f 220/3/4 216/3/4 221/3/4
f 217/3/4 218/3/4 222/3/4
f 222/3/4 218/3/4 223/3/4
f 219/3/4 220/3/4 225/3/4
f 225/3/4 220/3/4 226/3/4
f 223/3/4 224/3/4 229/3/4
f 229/3/4 224/3/4 230/3/4
f 226/3/4 227/3/4 231/3/4
f 231/3/4 227/3/4 232/3/4
f 228/3/4 229/3/4 233/3/4
f 233/3/4 229/3/4 234/3/4
f 232/3/4 233/3/4 235/3/4
f 235/3/4 233/3/4 236/3/4
f 237/3/4 238/3/4 240/3/4
f 240/3/4 238/3/4 241/3/4
f 239/3/4 240/3/4 243/3/4
f 243/3/4 240/3/4 244/3/4
f 241/3/4 242/3/4 245/3/4
f 245/3/4 242/3/4 246/3/4
f 244/3/4 245/3/4 247/3/4
f 247/3/4 245/3/4 248/3/4
f 249/3/4 250/3/4 251/3/4
f 251/3/4 250/3/4 252/3/4
f 255/4/5 254/4/5 253/4/5
f 256/4/5 254/4/5 255/4/5
f 259/2/5 258/2/5 257/2/5
f 260/2/5 258/2/5 259/2/5
f 261/3/5 260/3/5 259/3/5
f 262/3/5 260/3/5 261/3/5
f 267/4/5 264/4/5 263/4/5
f 268/4/5 264/4/5 267/4/5
f 269/4/5 266/4/5 265/4/5
f 270/4/5 266/4/5 269/4/5
f 274/3/5 272/3/5 271/3/5
f 275/3/5 272/3/5 274/3/5
f 277/3/5 274/3/5 273/3/5
f 278/3/5 276/3/5 275/3/5
f 279/3/5 277/3/5 273/3/5
f 280/3/5 277/3/5 279/3/5
f 281/3/5 276/3/5 278/3/5
f 282/3/5 276/3/5 281/3/5
f 283/3/5 281/3/5 280/3/5
f 284/3/5 281/3/5 283/3/5
f 289/4/5 286/4/5 285/4/5
f 290/4/5 286/4/5 289/4/5
f 293/4/5 288/4/5 287/4/5
f 294/4/5 288/4/5 293/4/5
f 296/4/5 292/4/5 291/4/5
f 297/4/5 292/4/5 296/4/5
f 300/3/5 296/3/5 295/3/5
f 301/3/5 296/3/5 300/3/5
f 302/3/5 298/3/5 297/3/5
f 303/3/5 298/3/5 302/3/5
f 305/3/5 300/3/5 299/3/5
f 306/3/5 300/3/5 305/3/5
f 309/3/5 304/3/5 303/3/5
f 310/3/5 304/3/5 309/3/5
f 311/3/5 307/3/5 306/3/5
f 312/3/5 307/3/5 311/3/5
f 313/3/5 309/3/5 308/3/5
f 314/3/5 309/3/5 313/3/5
f 315/3/5 313/3/5 312/3/5
f 316/3/5 313/3/5 315/3/5
f 317/4/6 318/4/6 319/4/6
f 319/4/6 318/4/6 320/4/6
f 321/4/6 322/4/6 325/4/6
f 325/4/6 322/4/6 326/4/6
f 323/4/6 324/4/6 329/4/6
f 329/4/6 324/4/6 330/4/6
f 327/4/6 328/4/6 332/4/6
f 332/4/6 328/4/6 333/4/6
f 331/3/6 332/3/6 336/3/6
f 336/3/6 332/3/6 337/3/6
f 333/3/6 334/3/6 338/3/6
f 338/3/6 334/3/6 339/3/6
f 335/3/6 336/3/6 341/3/6
f 341/3/6 336/3/6 342/3/6
f 339/3/6 340/3/6 345/3/6
f 345/3/6 340/3/6 346/3/6
f 342/3/6 343/3/6 347/3/6
f 347/3/6 343/3/6 348/3/6
f 344/3/6 345/3/6 349/3/6
f 349/3/6 345/3/6 350/3/6
f 348/3/6 349/3/6 351/3/6
f 351/3/6 349/3/6 352/3/6
f 353/4/6 354/4/6 357/4/6
f 357/4/6 354/4/6 358/4/6
f 355/4/6 356/4/6 359/4/6
f 359/4/6 356/4/6 360/4/6
f 361/3/6 362/3/6 364/3/6
f 364/3/6 362/3/6 365/3/6
f 363/3/6 364/3/6 367/3/6
f 367/3/6 364/3/6 368/3/6
f 365/3/6 366/3/6 369/3/6
f 369/3/6 366/3/6 370/3/6
f 368/3/6 369/3/6 371/3/6
f 371/3/6 369/3/6 372/3/6
f 373/4/6 374/4/6 375/4/6
f 375/4/6 374/4/6 376/4/6
f 377/3/6 378/3/6 379/3/6
f 379/3/6 378/3/6 380/3/6
